<?xml version="1.0" encoding="UTF-8"?>
<!-- Generator: visioncortex VTracer 0.6.3 -->
<svg version="1.1" xmlns="http://www.w3.org/2000/svg" width="1280" height="1280">
<path d="M0 0 C0.89 -0 1.77 -0 2.69 -0 C5.65 -0.01 8.61 -0 11.56 -0 C13.71 -0 15.86 -0 18.01 -0.01 C23.91 -0.01 29.8 -0.01 35.7 -0 C42.06 -0 48.43 -0.01 54.79 -0.01 C66.54 -0.01 78.29 -0.01 90.04 -0.01 C100.92 -0.01 111.79 -0.01 122.67 -0.01 C123.39 -0.01 124.11 -0.01 124.86 -0.01 C127.79 -0.01 130.73 -0.01 133.66 -0.01 C161.19 -0.01 188.73 -0.01 216.26 -0 C240.64 0 265.02 0 289.39 -0 C316.83 -0.01 344.27 -0.01 371.71 -0.01 C374.65 -0.01 377.58 -0.01 380.52 -0.01 C381.61 -0.01 381.61 -0.01 382.71 -0.01 C393.55 -0.01 404.39 -0.01 415.23 -0.01 C427.6 -0.01 439.97 -0.01 452.34 -0.01 C458.63 -0 464.92 -0 471.22 -0.01 C493.31 -0.02 515.41 -0.01 537.5 0.45 C539.29 0.49 541.08 0.52 542.87 0.55 C545.3 0.6 547.73 0.66 550.17 0.72 C550.87 0.73 551.58 0.74 552.31 0.75 C555.98 0.86 558.48 1.34 561.67 3.13 C564 3.17 566.34 3.17 568.67 3.13 C569.39 3.28 570.12 3.44 570.86 3.59 C575.32 4.44 579.82 4.48 584.34 4.64 C587.62 4.8 590.35 5.02 593.48 6.07 C599.24 7.98 605.34 8.3 611.35 8.98 C612.34 9.1 613.34 9.22 614.36 9.34 C615.26 9.45 616.16 9.55 617.09 9.66 C619.82 10.15 622.12 11.04 624.67 12.13 C626.22 12.46 627.79 12.75 629.36 13 C634.79 14.03 639.62 15.93 644.67 18.13 C645.65 18.53 645.65 18.53 646.64 18.95 C656.83 23.2 656.83 23.2 659.48 26.13 C662.29 28.69 665.03 29.39 668.65 30.41 C670.67 31.13 670.67 31.13 672.67 33.13 C674.37 34.11 676.08 35.09 677.79 36.05 C684.5 39.89 684.5 39.89 687.09 42.62 C689.37 44.79 691.98 45.79 694.83 47.06 C696.67 48.13 696.67 48.13 698.67 51.13 C701.21 52.71 703.82 54.11 706.45 55.53 C708.67 57.13 708.67 57.13 709.12 59.01 C709.8 61.61 710.83 62.66 712.72 64.54 C713.34 65.16 713.95 65.77 714.59 66.41 C715.23 67.03 715.88 67.66 716.54 68.31 C717.18 68.95 717.82 69.6 718.48 70.26 C722.09 73.93 722.09 73.93 726.67 76.13 C726.98 76.77 727.29 77.4 727.61 78.06 C728.49 80.28 728.49 80.28 730.61 81.06 C733.41 82.51 734.2 84.38 735.67 87.13 C736.33 88.12 736.99 89.11 737.67 90.13 C738 89.47 738.33 88.81 738.67 88.13 C739.96 89.87 741.26 91.62 742.54 93.38 C743.26 94.35 743.98 95.32 744.72 96.33 C747.59 100.44 749.15 104.36 750.67 109.13 C750.34 107.48 750.01 105.83 749.67 104.13 C750.66 104.79 751.65 105.45 752.67 106.13 C752.79 107.07 752.92 108.02 753.04 109 C753.35 112.25 753.35 112.25 755.86 113.88 C760.02 117.21 762.07 121.53 764.67 126.13 C765.26 127.03 765.26 127.03 765.87 127.95 C769.33 133.28 770.67 139.8 770.67 146.13 C771.12 146.56 771.57 147 772.04 147.45 C777.51 153.08 778.29 162.85 779.18 170.28 C779.5 173.06 779.5 173.06 780.72 175.03 C782.4 178.74 781.74 182.73 781.59 186.73 C781.5 190.47 781.53 191.92 783.67 195.13 C784.13 197.87 784.5 200.55 784.79 203.31 C784.92 204.44 784.92 204.44 785.06 205.58 C785.27 207.43 785.47 209.28 785.67 211.13 C786.33 211.13 786.99 211.13 787.67 211.13 C788.86 215.39 788.82 219.54 788.81 223.94 C788.82 225.28 788.82 225.28 788.82 226.64 C788.83 229.61 788.84 232.58 788.84 235.56 C788.84 237.66 788.84 239.76 788.85 241.87 C788.85 246.31 788.86 250.75 788.85 255.2 C788.85 259.66 788.86 264.12 788.88 268.58 C788.97 299.15 788.29 329.6 786.67 360.13 C787.66 360.13 788.65 360.13 789.67 360.13 C789.72 367.72 789.75 375.31 789.77 382.9 C789.78 386.43 789.8 389.95 789.82 393.48 C789.92 408.59 789.8 423.52 788 438.55 C787.89 439.73 787.78 440.91 787.67 442.13 C788 442.46 788.33 442.79 788.67 443.13 C789.74 448.65 789.72 453.62 788.67 459.13 C788.34 459.13 788.01 459.13 787.67 459.13 C787.34 461.11 787.01 463.09 786.67 465.13 C787 465.13 787.33 465.13 787.67 465.13 C787.7 466.94 787.72 468.75 787.73 470.56 C787.74 471.57 787.76 472.58 787.77 473.62 C787.67 476.13 787.67 476.13 786.67 477.13 C786.93 480.15 787.25 483.14 787.59 486.15 C788.76 497.31 788.98 508.37 788.93 519.57 C788.92 522.75 788.93 525.92 788.94 529.09 C788.94 531.13 788.94 533.16 788.93 535.19 C788.94 536.13 788.94 537.08 788.95 538.05 C788.94 538.92 788.93 539.79 788.93 540.69 C788.93 541.83 788.93 541.83 788.92 543 C788.64 545.4 787.86 547.04 786.67 549.13 C787 549.46 787.33 549.79 787.67 550.13 C787.77 551.8 787.8 553.47 787.8 555.15 C787.8 556.17 787.8 557.19 787.81 558.24 C787.8 559.32 787.8 560.39 787.79 561.5 C787.8 563.1 787.8 563.1 787.81 564.74 C787.8 565.76 787.8 566.78 787.8 567.84 C787.8 569.25 787.8 569.25 787.8 570.69 C787.67 573.13 787.67 573.13 786.67 576.13 C786.95 578.13 787.27 580.14 787.67 582.13 C788 582.13 788.33 582.13 788.67 582.13 C788.7 585.94 788.72 589.75 788.73 593.56 C788.74 594.65 788.75 595.74 788.76 596.86 C788.76 597.9 788.76 598.93 788.77 600 C788.77 600.96 788.78 601.91 788.78 602.9 C788.67 605.13 788.67 605.13 787.67 606.13 C787.62 607.79 787.63 609.46 787.67 611.13 C787.71 612.79 787.72 614.46 787.67 616.13 C787.34 616.46 787.01 616.79 786.67 617.13 C786.73 619.56 786.86 621.95 787.04 624.38 C787.09 625.04 787.13 625.71 787.18 626.4 C787.38 629.31 787.66 632.08 788.33 634.92 C788.67 637.13 788.67 637.13 786.67 640.13 C787.33 641.12 787.99 642.11 788.67 643.13 C788.98 645.7 789.18 648.17 789.29 650.75 C789.35 651.83 789.35 651.83 789.41 652.93 C790.12 667.5 790.12 667.5 788.67 673.13 C788.34 673.13 788.01 673.13 787.67 673.13 C786.49 680.88 786.73 688.47 787.02 696.28 C787.17 700.16 787.29 704.04 787.41 707.93 C787.43 708.7 787.46 709.48 787.48 710.28 C787.7 717.6 787.79 724.92 787.79 732.25 C787.8 733.35 787.8 734.44 787.81 735.57 C787.81 736.56 787.8 737.55 787.8 738.57 C787.8 739.86 787.8 739.86 787.8 741.18 C787.67 743.13 787.67 743.13 786.67 744.13 C786.93 745.7 787.25 747.27 787.59 748.83 C788.88 755.54 788.94 762.05 788.9 768.87 C788.9 770.8 788.9 770.8 788.9 772.76 C788.9 775.47 788.89 778.17 788.88 780.88 C788.86 784.3 788.85 787.73 788.86 791.16 C788.85 794.48 788.85 797.8 788.84 801.12 C788.84 802.33 788.84 803.54 788.83 804.79 C788.71 827.73 788.71 827.73 782.67 835.13 C781.03 841.64 781.33 848.65 781.15 855.33 C781.12 856.29 781.08 857.25 781.05 858.23 C781.02 859.1 781 859.97 780.97 860.86 C780.67 863.13 780.67 863.13 778.67 866.13 C779 866.79 779.33 867.45 779.67 868.13 C778.73 870.25 778.73 870.25 777.67 872.13 C777.34 872.13 777.01 872.13 776.67 872.13 C776.65 873.03 776.65 873.03 776.63 873.96 C776.28 880.12 774.81 884.43 771.86 889.82 C770.32 892.81 769.57 895.89 768.67 899.13 C767.01 902.96 765.1 906.49 762.73 909.94 C760.91 912.75 759.59 915.39 758.23 918.44 C756.62 922.06 754.97 925.63 753.11 929.13 C752.73 929.83 752.36 930.53 751.98 931.25 C750.47 933.41 748.77 934.58 746.67 936.13 C745.74 937.75 744.82 939.37 743.94 941.02 C741.81 944.55 739.11 947.63 736.47 950.79 C734.87 952.87 733.82 954.79 732.67 957.13 C731.04 958.83 729.38 960.5 727.67 962.13 C728.33 962.13 728.99 962.13 729.67 962.13 C729.34 963.12 729.01 964.11 728.67 965.13 C728.01 965.13 727.35 965.13 726.67 965.13 C726.61 965.66 726.55 966.2 726.48 966.75 C724.96 971.2 721.23 975.07 717.67 978.13 C717.01 978.13 716.35 978.13 715.67 978.13 C715.67 978.79 715.67 979.45 715.67 980.13 C710.19 985.13 710.19 985.13 707.67 985.13 C707.67 985.79 707.67 986.45 707.67 987.13 C706.38 987.82 705.09 988.51 703.79 989.19 C703.08 989.57 702.36 989.95 701.61 990.35 C700.97 990.61 700.33 990.86 699.67 991.13 C699.01 990.8 698.35 990.47 697.67 990.13 C698.99 989.14 700.31 988.15 701.67 987.13 C698.69 988.79 696.25 990.49 693.67 992.75 C690.64 995.15 689.29 995.42 685.67 996.13 C685.38 996.75 685.08 997.38 684.78 998.02 C683.41 1000.62 682.27 1001.1 679.61 1002.25 C676.49 1003.47 676.49 1003.47 674.67 1006.13 C672.6 1007.06 672.6 1007.06 669.98 1008 C662.7 1010.63 662.7 1010.63 657.67 1016.13 C655.78 1016.43 655.78 1016.43 653.42 1016.56 C649.35 1016.92 647.16 1017.98 643.67 1020.13 C642.28 1020.32 640.88 1020.46 639.48 1020.56 C638.22 1020.75 636.97 1020.93 635.67 1021.13 C635.43 1021.77 635.2 1022.42 634.95 1023.09 C634.32 1024.1 634.32 1024.1 633.67 1025.13 C630.79 1025.7 628.2 1026.05 625.29 1026.25 C623.77 1026.37 622.24 1026.5 620.71 1026.63 C620.03 1026.68 619.35 1026.73 618.65 1026.78 C616.62 1027.03 616.62 1027.03 614.78 1028.11 C612.09 1029.41 609.76 1029.58 606.79 1029.84 C605.62 1029.95 604.45 1030.06 603.24 1030.17 C600.83 1030.39 598.42 1030.6 596.01 1030.81 C590.09 1031.37 584.55 1032.09 578.8 1033.62 C566.86 1036.68 555.24 1036.63 542.99 1036.5 C540.61 1036.49 538.23 1036.49 535.85 1036.48 C530.66 1036.47 525.48 1036.44 520.29 1036.4 C511.77 1036.34 503.25 1036.31 494.72 1036.29 C493.22 1036.29 491.72 1036.28 490.22 1036.28 C487.91 1036.27 485.61 1036.27 483.31 1036.26 C478.54 1036.25 473.76 1036.23 468.99 1036.21 C442.85 1036.12 416.71 1036.13 390.57 1036.19 C389.61 1036.19 388.64 1036.19 387.64 1036.19 C375.69 1036.22 363.75 1036.25 351.8 1036.29 C341.68 1036.31 331.56 1036.34 321.44 1036.36 C308.13 1036.4 294.83 1036.43 281.53 1036.47 C280.51 1036.47 279.49 1036.47 278.44 1036.47 C276.38 1036.48 274.31 1036.48 272.25 1036.49 C253.26 1036.54 234.27 1036.59 215.29 1036.63 C197.64 1036.67 180 1036.71 162.36 1036.76 C152.56 1036.79 142.75 1036.81 132.95 1036.83 C124.71 1036.85 116.47 1036.87 108.23 1036.9 C104.04 1036.91 99.85 1036.92 95.66 1036.93 C91.84 1036.94 88.01 1036.95 84.18 1036.96 C82.8 1036.97 81.41 1036.97 80.03 1036.97 C78.15 1036.97 76.28 1036.98 74.4 1036.99 C72.84 1036.99 72.84 1036.99 71.24 1037 C68.55 1037.02 68.55 1037.02 65.67 1038.13 C63.07 1038.22 60.5 1038.26 57.9 1038.26 C57.11 1038.26 56.32 1038.26 55.5 1038.26 C52.88 1038.26 50.26 1038.26 47.64 1038.26 C45.81 1038.26 43.99 1038.26 42.16 1038.26 C38.32 1038.26 34.48 1038.26 30.64 1038.26 C25.75 1038.25 20.86 1038.25 15.97 1038.26 C12.18 1038.26 8.4 1038.26 4.62 1038.26 C2.82 1038.26 1.02 1038.26 -0.78 1038.26 C-27 1038.29 -27 1038.29 -31.33 1036.13 C-32.89 1036.11 -34.46 1036.13 -36.02 1036.19 C-48.58 1036.29 -61.07 1033.66 -73.33 1031.13 C-74.4 1030.91 -74.4 1030.91 -75.5 1030.68 C-83.89 1028.92 -91.74 1026.86 -99.59 1023.33 C-102.2 1022.18 -104.81 1021.27 -107.52 1020.38 C-112.6 1018.56 -117.31 1016.2 -122.08 1013.69 C-122.79 1013.32 -123.5 1012.95 -124.23 1012.56 C-128.88 1010.07 -133.07 1007.23 -137.33 1004.13 C-138.56 1003.39 -139.81 1002.67 -141.08 1002 C-143.76 1000.46 -145.26 999.29 -147.33 997.13 C-148.48 996.45 -148.48 996.45 -149.64 995.75 C-152.33 994.13 -152.33 994.13 -155.27 991.63 C-158.15 989.07 -158.15 989.07 -161.21 987.75 C-167.59 984.43 -172.49 979.24 -177.01 973.7 C-179.18 971.11 -180.67 969.37 -183.89 968.19 C-186.9 966.88 -187 966.02 -188.33 963.13 C-191.46 957.94 -195.02 953.21 -198.89 948.56 C-208.33 937.18 -208.33 937.18 -208.33 931.13 C-208.99 931.13 -209.65 931.13 -210.33 931.13 C-210.76 930.09 -211.2 929.06 -211.64 928 C-212.68 925.58 -213.77 923.24 -214.96 920.88 C-216.33 918.13 -216.33 918.13 -217.33 915.13 C-217.99 914.8 -218.65 914.47 -219.33 914.13 C-219 913.14 -218.67 912.15 -218.33 911.13 C-219.32 910.8 -220.31 910.47 -221.33 910.13 C-222.07 908.15 -222.72 906.14 -223.33 904.13 C-224.26 902.24 -225.22 900.36 -226.21 898.5 C-230.74 889.57 -233.42 880.36 -235.62 870.62 C-236.26 867.91 -236.26 867.91 -238.33 865.13 C-238.73 863.33 -239.05 861.51 -239.33 859.69 C-239.88 856.06 -240.66 853.37 -242.33 850.13 C-242.78 848.45 -243.18 846.76 -243.52 845.06 C-243.7 844.21 -243.88 843.35 -244.06 842.47 C-244.33 840.13 -244.33 840.13 -243.33 837.13 C-244.24 835.67 -245.22 834.26 -246.22 832.87 C-251.37 823.74 -250.14 813.36 -250.07 803.16 C-250.07 800.8 -250.08 798.44 -250.09 796.08 C-250.1 790.28 -250.09 784.49 -250.06 778.69 C-250.04 771.74 -250.04 764.79 -250.05 757.84 C-250.07 745.02 -250.06 732.19 -250.03 719.37 C-250 706.66 -249.98 693.95 -249.98 681.24 C-249.98 680.45 -249.98 679.66 -249.98 678.85 C-249.98 675.63 -249.98 672.42 -249.98 669.21 C-249.97 639.95 -249.94 610.68 -249.89 581.42 C-249.85 553.82 -249.82 526.22 -249.81 498.62 C-249.81 497.34 -249.81 497.34 -249.81 496.04 C-249.81 492.61 -249.81 489.19 -249.81 485.76 C-249.81 484.05 -249.81 482.35 -249.81 480.64 C-249.81 478.94 -249.81 477.23 -249.81 475.53 C-249.8 448.36 -249.78 421.19 -249.75 394.03 C-249.74 386.08 -249.74 378.14 -249.73 370.19 C-249.72 353.48 -249.71 336.77 -249.67 320.07 C-249.66 313.16 -249.65 306.25 -249.65 299.34 C-249.65 293.01 -249.64 286.68 -249.62 280.35 C-249.61 278.06 -249.61 275.78 -249.61 273.5 C-249.62 262.04 -249.35 250.86 -247.77 239.5 C-247.23 235.37 -247.16 231.47 -247.27 227.31 C-247.36 223.31 -247.32 219.98 -246.33 216.13 C-246.36 214.21 -246.43 212.29 -246.52 210.38 C-246.57 206.4 -246.5 203.77 -244.39 200.38 C-241.68 195.87 -241.77 191.05 -241.66 185.94 C-241.54 181.61 -240.76 178.19 -239.33 174.13 C-239.2 171.95 -239.2 171.95 -239.39 169.88 C-239.55 161.3 -236.29 154.61 -231.81 147.48 C-228.47 142.16 -226.16 136.71 -224.02 130.81 C-221.92 125.2 -219.22 120.5 -215.88 115.54 C-214.17 113.05 -214.17 113.05 -212.96 109.69 C-209.41 101.91 -203.37 95.38 -197.96 88.81 C-195.69 86.04 -193.92 83.6 -192.64 80.25 C-191.11 76.61 -189.52 75.38 -186.33 73.13 C-185.67 72.42 -185.01 71.72 -184.33 71 C-182.33 69.13 -182.33 69.13 -180.08 68.31 C-173.66 65.54 -168.47 59.51 -163.77 54.44 C-162.33 53.13 -162.33 53.13 -159.33 52.13 C-158.73 51.18 -158.13 50.23 -157.52 49.25 C-155.06 45.74 -153.12 44.94 -149.33 43.13 C-149.02 42.47 -148.71 41.81 -148.39 41.13 C-146.98 38.46 -145.18 38.07 -142.45 37.04 C-139.94 35.96 -137.72 34.62 -135.39 33.19 C-128.22 28.81 -120.92 25.52 -113.14 22.36 C-110.84 21.35 -108.87 20.29 -106.77 18.94 C-102.84 16.87 -99.45 16.29 -95.1 15.63 C-92.49 15.15 -90.19 14.47 -87.71 13.56 C-83.98 12.23 -80.57 11.76 -76.65 11.44 C-74.07 11.09 -71.8 10.38 -69.33 9.56 C-66.03 8.5 -63.36 7.98 -59.89 8.13 C-54.4 8.35 -49.54 6.71 -44.33 5.13 C-41.78 4.43 -39.48 4.02 -36.83 3.69 C-33.49 3.35 -33.49 3.35 -31.4 2.09 C-28.96 0.95 -27.39 0.95 -24.71 1.06 C-21.32 1.19 -18.09 1.01 -14.72 0.63 C-9.8 0.13 -4.95 -0.01 0 0 Z M755.67 116.13 C756.33 117.45 756.99 118.77 757.67 120.13 C757.34 118.81 757.01 117.49 756.67 116.13 C756.34 116.13 756.01 116.13 755.67 116.13 Z M760.67 126.13 C761.66 127.78 762.65 129.43 763.67 131.13 C764 130.47 764.33 129.81 764.67 129.13 C764.01 128.14 763.35 127.15 762.67 126.13 C762.01 126.13 761.35 126.13 760.67 126.13 Z M764.67 132.13 C765.33 133.45 765.99 134.77 766.67 136.13 C766.34 134.81 766.01 133.49 765.67 132.13 C765.34 132.13 765.01 132.13 764.67 132.13 Z M766.67 136.13 C767.67 140.13 767.67 140.13 767.67 140.13 Z M767.67 140.13 C768.67 143.13 768.67 143.13 768.67 143.13 Z M772.67 155.13 C773 156.12 773.33 157.11 773.67 158.13 C774.33 157.8 774.99 157.47 775.67 157.13 C774.68 156.47 773.69 155.81 772.67 155.13 Z M775.67 160.13 C775.67 163.1 775.67 166.07 775.67 169.13 C776 169.13 776.33 169.13 776.67 169.13 C776.67 166.16 776.67 163.19 776.67 160.13 C776.34 160.13 776.01 160.13 775.67 160.13 Z M776.67 172.13 C777.67 175.13 777.67 175.13 777.67 175.13 Z M777.67 175.13 C778.67 177.13 778.67 177.13 778.67 177.13 Z M779.67 178.13 C780.67 180.13 780.67 180.13 780.67 180.13 Z M781.67 197.13 C781.67 198.78 781.67 200.43 781.67 202.13 C782 202.13 782.33 202.13 782.67 202.13 C782.67 200.48 782.67 198.83 782.67 197.13 C782.34 197.13 782.01 197.13 781.67 197.13 Z M785.67 215.13 C785.67 217.11 785.67 219.09 785.67 221.13 C786 221.13 786.33 221.13 786.67 221.13 C786.67 219.15 786.67 217.17 786.67 215.13 C786.34 215.13 786.01 215.13 785.67 215.13 Z M785.67 227.13 C786.67 229.13 786.67 229.13 786.67 229.13 Z M785.67 231.13 C786.67 233.13 786.67 233.13 786.67 233.13 Z M785.67 293.13 C786.67 295.13 786.67 295.13 786.67 295.13 Z M786.67 295.13 C786.67 300.08 786.67 305.03 786.67 310.13 C787 310.13 787.33 310.13 787.67 310.13 C787.67 305.18 787.67 300.23 787.67 295.13 C787.34 295.13 787.01 295.13 786.67 295.13 Z M785.67 311.13 C785.67 320.04 785.67 328.95 785.67 338.13 C786 338.13 786.33 338.13 786.67 338.13 C786.67 329.22 786.67 320.31 786.67 311.13 C786.34 311.13 786.01 311.13 785.67 311.13 Z M786.67 363.13 C787.67 365.13 787.67 365.13 787.67 365.13 Z M786.67 371.13 C787.67 375.13 787.67 375.13 787.67 375.13 Z M786.67 414.13 C787.67 417.13 787.67 417.13 787.67 417.13 Z M786.67 419.13 C786.67 422.76 786.67 426.39 786.67 430.13 C787 430.13 787.33 430.13 787.67 430.13 C787.67 426.5 787.67 422.87 787.67 419.13 C787.34 419.13 787.01 419.13 786.67 419.13 Z M784.67 431.13 C785.67 434.13 785.67 434.13 785.67 434.13 Z M784.67 435.13 C785.67 437.13 785.67 437.13 785.67 437.13 Z M784.67 438.13 C785.67 441.13 785.67 441.13 785.67 441.13 Z M784.67 473.13 C785.67 475.13 785.67 475.13 785.67 475.13 Z M785.67 483.13 C785.67 484.78 785.67 486.43 785.67 488.13 C786 488.13 786.33 488.13 786.67 488.13 C786.67 486.48 786.67 484.83 786.67 483.13 C786.34 483.13 786.01 483.13 785.67 483.13 Z M784.67 493.13 C785.67 497.13 785.67 497.13 785.67 497.13 Z M786.67 498.13 C786.67 509.35 786.67 520.57 786.67 532.13 C787 532.13 787.33 532.13 787.67 532.13 C787.67 520.91 787.67 509.69 787.67 498.13 C787.34 498.13 787.01 498.13 786.67 498.13 Z M786.67 533.13 C786.67 535.44 786.67 537.75 786.67 540.13 C787 540.13 787.33 540.13 787.67 540.13 C787.67 537.82 787.67 535.51 787.67 533.13 C787.34 533.13 787.01 533.13 786.67 533.13 Z M784.67 553.13 C784.67 556.76 784.67 560.39 784.67 564.13 C785 564.13 785.33 564.13 785.67 564.13 C785.67 560.5 785.67 556.87 785.67 553.13 C785.34 553.13 785.01 553.13 784.67 553.13 Z M784.67 566.13 C785.67 569.13 785.67 569.13 785.67 569.13 Z M784.67 571.13 C785.67 573.13 785.67 573.13 785.67 573.13 Z M786.67 589.13 C786.67 591.77 786.67 594.41 786.67 597.13 C787 597.13 787.33 597.13 787.67 597.13 C787.67 594.49 787.67 591.85 787.67 589.13 C787.34 589.13 787.01 589.13 786.67 589.13 Z M786.67 650.13 C786.67 652.77 786.67 655.41 786.67 658.13 C787 658.13 787.33 658.13 787.67 658.13 C787.67 655.49 787.67 652.85 787.67 650.13 C787.34 650.13 787.01 650.13 786.67 650.13 Z M784.67 682.13 C784.67 693.02 784.67 703.91 784.67 715.13 C785 715.13 785.33 715.13 785.67 715.13 C785.67 704.24 785.67 693.35 785.67 682.13 C785.34 682.13 785.01 682.13 784.67 682.13 Z M784.67 731.13 C784.67 732.78 784.67 734.43 784.67 736.13 C785 736.13 785.33 736.13 785.67 736.13 C785.67 734.48 785.67 732.83 785.67 731.13 C785.34 731.13 785.01 731.13 784.67 731.13 Z M784.67 739.13 C785.67 742.13 785.67 742.13 785.67 742.13 Z M785.67 750.13 C786.67 753.13 786.67 753.13 786.67 753.13 Z M784.67 814.13 C784.67 815.78 784.67 817.43 784.67 819.13 C785 819.13 785.33 819.13 785.67 819.13 C785.67 817.48 785.67 815.83 785.67 814.13 C785.34 814.13 785.01 814.13 784.67 814.13 Z M724.67 963.13 C724.67 966.13 724.67 966.13 724.67 966.13 Z M722.67 966.13 C723.67 968.13 723.67 968.13 723.67 968.13 Z M720.67 969.13 C719.68 969.79 718.69 970.45 717.67 971.13 C718 972.12 718.33 973.11 718.67 974.13 C718.67 973.47 718.67 972.81 718.67 972.13 C719.66 971.8 720.65 971.47 721.67 971.13 C721.34 970.47 721.01 969.81 720.67 969.13 Z M714.67 975.13 C715.67 977.13 715.67 977.13 715.67 977.13 Z M708.67 980.13 C708.67 981.12 708.67 982.11 708.67 983.13 C709.66 982.14 710.65 981.15 711.67 980.13 C710.68 980.13 709.69 980.13 708.67 980.13 Z M705.67 983.13 C705.67 984.12 705.67 985.11 705.67 986.13 C706.33 985.14 706.99 984.15 707.67 983.13 C707.01 983.13 706.35 983.13 705.67 983.13 Z M-140.33 1000.13 C-138.35 1001.12 -138.35 1001.12 -136.33 1002.13 C-136.66 1001.47 -136.99 1000.81 -137.33 1000.13 C-138.32 1000.13 -139.31 1000.13 -140.33 1000.13 Z M-110.33 1015.13 C-110.33 1015.79 -110.33 1016.45 -110.33 1017.13 C-107.86 1017.62 -107.86 1017.62 -105.33 1018.13 C-107.59 1016.05 -107.59 1016.05 -110.33 1015.13 Z M-100.33 1020.13 C-96.33 1021.13 -96.33 1021.13 -96.33 1021.13 Z M-89.33 1024.13 C-89.33 1024.46 -89.33 1024.79 -89.33 1025.13 C-87.35 1025.13 -85.37 1025.13 -83.33 1025.13 C-83.33 1024.8 -83.33 1024.47 -83.33 1024.13 C-85.31 1024.13 -87.29 1024.13 -89.33 1024.13 Z M-66.33 1030.13 C-66.33 1030.46 -66.33 1030.79 -66.33 1031.13 C-62.37 1031.13 -58.41 1031.13 -54.33 1031.13 C-54.33 1030.8 -54.33 1030.47 -54.33 1030.13 C-58.29 1030.13 -62.25 1030.13 -66.33 1030.13 Z M-37.33 1034.13 C-37.33 1034.46 -37.33 1034.79 -37.33 1035.13 C-35.35 1035.13 -33.37 1035.13 -31.33 1035.13 C-31.33 1034.8 -31.33 1034.47 -31.33 1034.13 C-33.31 1034.13 -35.29 1034.13 -37.33 1034.13 Z M60.67 1035.13 C60.67 1035.46 60.67 1035.79 60.67 1036.13 C63.31 1036.13 65.95 1036.13 68.67 1036.13 C68.67 1035.8 68.67 1035.47 68.67 1035.13 C66.03 1035.13 63.39 1035.13 60.67 1035.13 Z " fill="#F8FBFC" transform="translate(368.3306894302368,117.87415885925293)"/>
<path d="M0 0 C8.84 7.35 15.42 18.6 17 30 C17.14 31.94 17.24 33.89 17.32 35.84 C17.36 36.9 17.4 37.96 17.44 39.06 C17.48 40.15 17.52 41.25 17.56 42.38 C17.61 43.49 17.65 44.61 17.69 45.76 C17.8 48.51 17.9 51.25 18 54 C19.7 54 19.7 54 21.44 54.01 C49.07 54.09 76.69 54.18 104.32 54.29 C117.68 54.34 131.04 54.38 144.4 54.42 C156.04 54.45 167.69 54.49 179.33 54.54 C185.5 54.57 191.66 54.59 197.83 54.6 C203.64 54.62 209.44 54.64 215.25 54.67 C217.38 54.68 219.5 54.68 221.63 54.68 C224.54 54.69 227.46 54.7 230.37 54.72 C231.2 54.72 232.04 54.72 232.9 54.72 C244.75 54.83 252.71 57.59 261.69 65.31 C266.31 70.69 269.8 76.32 272.69 82.8 C273.12 83.78 273.56 84.76 274.01 85.77 C274.34 86.5 274.66 87.24 275 88 C275.58 88.01 276.17 88.02 276.77 88.02 C282.9 88.11 289.03 88.21 295.17 88.32 C297.45 88.36 299.73 88.39 302.01 88.42 C339.08 88.94 339.08 88.94 346 95 C351.17 101.55 354.11 107.25 354.14 115.64 C354.15 116.99 354.15 116.99 354.16 118.38 C354.16 119.35 354.16 120.33 354.16 121.34 C354.17 122.38 354.17 123.42 354.18 124.49 C354.19 127.93 354.2 131.36 354.2 134.8 C354.21 137.19 354.21 139.58 354.22 141.97 C354.23 146.99 354.24 152.01 354.24 157.03 C354.25 163.44 354.27 169.86 354.3 176.28 C354.32 181.22 354.32 186.16 354.32 191.11 C354.33 193.47 354.33 195.84 354.35 198.2 C354.36 201.51 354.36 204.83 354.36 208.14 C354.37 209.6 354.37 209.6 354.38 211.08 C354.34 218.01 353.44 224.51 349.39 230.3 C339.57 239.37 329.98 239.15 317.19 239.1 C315.37 239.1 315.37 239.1 313.52 239.09 C309.68 239.09 305.84 239.08 302 239.06 C299.39 239.06 296.77 239.05 294.16 239.05 C287.77 239.04 281.39 239.02 275 239 C273.5 242 274 244.64 274.12 247.98 C274.14 248.66 274.17 249.35 274.19 250.05 C274.27 252.24 274.35 254.43 274.44 256.62 C274.49 258.11 274.54 259.59 274.6 261.08 C274.72 264.72 274.86 268.36 275 272 C275.6 272.01 276.19 272.02 276.8 272.03 C283.07 272.14 289.33 272.25 295.59 272.37 C297.92 272.42 300.25 272.46 302.58 272.5 C338.49 273.12 338.49 273.12 344 277 C345.91 279.13 345.91 279.13 347.62 281.56 C348.19 282.35 348.76 283.13 349.35 283.94 C353.53 291.69 354.44 299.36 354.39 308.05 C354.39 309.1 354.4 310.16 354.4 311.24 C354.42 314.7 354.41 318.15 354.4 321.61 C354.4 324.02 354.4 326.44 354.41 328.85 C354.41 333.9 354.41 338.95 354.39 343.99 C354.37 350.46 354.38 356.92 354.4 363.39 C354.41 368.37 354.41 373.35 354.4 378.33 C354.4 380.72 354.4 383.1 354.41 385.48 C354.42 388.81 354.4 392.14 354.39 395.47 C354.39 396.45 354.4 397.44 354.41 398.45 C354.34 405.77 352.59 410.96 347.61 416.56 C340.02 423.37 331.43 423.74 321.68 423.71 C320.33 423.72 318.97 423.74 317.62 423.75 C314.09 423.79 310.56 423.8 307.04 423.81 C303.42 423.82 299.81 423.85 296.2 423.89 C289.13 423.95 282.07 423.99 275 424 C273.54 426.92 273.89 429.5 273.9 432.76 C273.9 433.42 273.91 434.08 273.91 434.77 C273.91 436.89 273.92 439.01 273.94 441.12 C273.94 442.56 273.95 444 273.95 445.43 C273.96 448.96 273.98 452.48 274 456 C274.72 456.01 275.43 456.01 276.17 456.02 C282.97 456.08 289.76 456.15 296.56 456.24 C300.05 456.28 303.55 456.32 307.04 456.35 C311.06 456.38 315.09 456.43 319.12 456.49 C320.36 456.49 321.6 456.5 322.87 456.51 C331.05 456.64 339.09 457.04 345.81 462.12 C352.8 471.31 354.15 478.93 354.16 490.27 C354.17 491.29 354.17 492.31 354.18 493.36 C354.19 496.73 354.2 500.09 354.2 503.46 C354.21 505.8 354.21 508.15 354.22 510.5 C354.23 515.41 354.24 520.33 354.24 525.25 C354.25 531.53 354.27 537.82 354.3 544.11 C354.32 548.96 354.32 553.8 354.32 558.65 C354.33 560.97 354.33 563.28 354.35 565.6 C354.36 568.85 354.36 572.1 354.36 575.34 C354.37 576.29 354.37 577.24 354.38 578.22 C354.33 586.81 352.56 593.74 346.99 600.39 C339.38 606.54 332.33 606.6 322.88 606.61 C321.52 606.62 320.16 606.64 318.81 606.66 C315.26 606.7 311.72 606.72 308.17 606.74 C304.55 606.76 300.92 606.8 297.29 606.84 C290.2 606.91 283.1 606.97 276 607 C275.67 607.82 275.34 608.63 275.01 609.48 C274.57 610.55 274.13 611.63 273.68 612.73 C273.24 613.8 272.81 614.86 272.37 615.96 C268.35 624.88 260.64 633.41 252 638 C241.23 640.68 229.85 640.34 218.83 640.41 C216.97 640.43 215.1 640.45 213.24 640.47 C208.27 640.52 203.31 640.56 198.34 640.6 C194.18 640.63 190.03 640.67 185.87 640.71 C159.65 640.96 133.43 641.06 107.2 640.99 C77.46 640.92 47.73 641.41 18 642 C17.82 643.16 17.63 644.32 17.44 645.52 C17.18 647.06 16.93 648.61 16.67 650.15 C16.49 651.29 16.49 651.29 16.31 652.46 C14.66 662.22 9.71 669.8 2 676 C-10.93 684.96 -23.69 683.86 -38.6 681.19 C-41.27 680.7 -43.95 680.19 -46.62 679.69 C-48.56 679.33 -50.5 678.98 -52.43 678.62 C-56.65 677.85 -60.87 677.07 -65.09 676.28 C-72.49 674.91 -79.9 673.55 -87.31 672.2 C-89.95 671.71 -92.59 671.23 -95.23 670.75 C-95.88 670.63 -96.53 670.51 -97.21 670.39 C-101.63 669.58 -106.06 668.76 -110.48 667.95 C-123.57 665.54 -136.66 663.16 -149.76 660.83 C-162.48 658.57 -175.17 656.22 -187.87 653.87 C-199.88 651.65 -211.9 649.48 -223.94 647.4 C-231.87 646.03 -239.78 644.57 -247.69 643.06 C-258.03 641.1 -268.38 639.21 -278.75 637.38 C-283.17 636.59 -287.58 635.8 -292 635 C-293.02 634.82 -294.04 634.63 -295.08 634.45 C-297.89 633.93 -300.7 633.41 -303.5 632.88 C-304.31 632.73 -305.13 632.58 -305.96 632.43 C-313.35 630.99 -313.35 630.99 -316 628 C-316.62 624.88 -316.53 621.78 -316.5 618.61 C-316.5 617.63 -316.51 616.66 -316.51 615.65 C-316.53 612.34 -316.51 609.03 -316.49 605.72 C-316.5 603.33 -316.5 600.95 -316.51 598.56 C-316.52 593.36 -316.52 588.16 -316.5 582.96 C-316.48 575.23 -316.49 567.49 -316.5 559.76 C-316.51 546.75 -316.5 533.74 -316.48 520.73 C-316.47 507.84 -316.46 494.96 -316.46 482.07 C-316.46 481.27 -316.46 480.47 -316.46 479.64 C-316.46 476.39 -316.46 473.14 -316.46 469.89 C-316.46 439.39 -316.44 408.88 -316.41 378.38 C-316.38 351.25 -316.37 324.13 -316.37 297.01 C-316.37 295.27 -316.37 293.53 -316.37 291.79 C-316.37 290.92 -316.37 290.06 -316.37 289.18 C-316.37 284.84 -316.37 280.51 -316.37 276.18 C-316.37 275.32 -316.37 274.47 -316.37 273.59 C-316.37 250.94 -316.36 228.3 -316.35 205.66 C-316.35 204.86 -316.35 204.05 -316.35 203.22 C-316.35 199.98 -316.35 196.75 -316.34 193.51 C-316.34 182.23 -316.33 170.95 -316.33 159.67 C-316.33 145.14 -316.32 130.61 -316.31 116.08 C-316.29 108.38 -316.29 100.69 -316.29 93 C-316.29 87.27 -316.29 81.54 -316.27 75.81 C-316.27 73.48 -316.27 71.16 -316.27 68.83 C-316.28 65.68 -316.27 62.53 -316.26 59.39 C-316.26 58.47 -316.27 57.55 -316.27 56.6 C-316.26 55.77 -316.26 54.94 -316.25 54.08 C-316.25 53.36 -316.25 52.64 -316.25 51.89 C-316 50 -316 50 -314 47 C-311.19 46.19 -308.52 45.56 -305.66 45.03 C-304.81 44.86 -303.97 44.69 -303.1 44.52 C-294.46 42.83 -285.79 41.39 -277.1 39.99 C-263.28 37.76 -249.51 35.42 -235.78 32.7 C-229.08 31.38 -222.37 30.21 -215.62 29.12 C-203.78 27.22 -192.02 24.91 -180.25 22.55 C-172.05 20.92 -163.85 19.47 -155.59 18.2 C-145.81 16.69 -136.08 14.89 -126.35 13.09 C-123.11 12.5 -119.87 11.91 -116.63 11.32 C-107.3 9.61 -98.02 7.85 -88.79 5.63 C-83.92 4.53 -79 3.8 -74.06 3.06 C-65.69 1.76 -57.34 0.39 -49 -1.12 C-48.12 -1.28 -47.25 -1.44 -46.34 -1.61 C-42.34 -2.34 -38.38 -3.14 -34.43 -4.09 C-23.02 -6.65 -9.98 -6.59 0 0 Z " fill="#3068BF" transform="translate(620,300)"/>
<path d="M0 0 C28.9 0.08 57.81 0.18 86.71 0.29 C89.38 0.3 92.05 0.31 94.73 0.32 C95.39 0.32 96.06 0.32 96.74 0.32 C106.82 0.36 116.89 0.39 126.97 0.42 C138.67 0.45 150.37 0.49 162.06 0.54 C168.26 0.57 174.45 0.59 180.64 0.6 C186.48 0.62 192.31 0.64 198.14 0.67 C200.28 0.68 202.42 0.68 204.55 0.68 C207.48 0.69 210.41 0.7 213.33 0.72 C214.17 0.72 215.01 0.72 215.87 0.72 C227.74 0.83 235.7 3.58 244.69 11.31 C249.31 16.69 252.8 22.32 255.69 28.8 C256.12 29.78 256.56 30.76 257.01 31.77 C257.34 32.5 257.66 33.24 258 34 C258.58 34.01 259.17 34.02 259.77 34.02 C265.9 34.11 272.03 34.21 278.17 34.32 C280.45 34.36 282.73 34.39 285.01 34.42 C322.08 34.94 322.08 34.94 329 41 C334.17 47.55 337.11 53.25 337.14 61.64 C337.15 62.54 337.15 63.45 337.16 64.38 C337.16 65.35 337.16 66.33 337.16 67.34 C337.17 68.38 337.17 69.42 337.18 70.49 C337.19 73.93 337.2 77.36 337.2 80.8 C337.21 83.19 337.21 85.58 337.22 87.97 C337.23 92.99 337.24 98.01 337.24 103.03 C337.25 109.44 337.27 115.86 337.3 122.28 C337.32 127.22 337.32 132.16 337.32 137.11 C337.33 139.47 337.33 141.84 337.35 144.2 C337.36 147.51 337.36 150.83 337.36 154.14 C337.37 155.11 337.37 156.08 337.38 157.08 C337.34 164.01 336.44 170.51 332.39 176.3 C322.57 185.37 312.98 185.15 300.19 185.1 C298.37 185.1 298.37 185.1 296.52 185.09 C292.68 185.09 288.84 185.08 285 185.06 C282.39 185.06 279.77 185.05 277.16 185.05 C270.77 185.04 264.39 185.02 258 185 C256.5 188 257 190.64 257.12 193.98 C257.14 194.66 257.17 195.35 257.19 196.05 C257.27 198.24 257.35 200.43 257.44 202.62 C257.49 204.11 257.54 205.59 257.6 207.08 C257.72 210.72 257.86 214.36 258 218 C258.6 218.01 259.19 218.02 259.8 218.03 C266.07 218.14 272.33 218.25 278.59 218.37 C280.92 218.42 283.25 218.46 285.58 218.5 C321.49 219.12 321.49 219.12 327 223 C328.91 225.13 328.91 225.13 330.62 227.56 C331.48 228.74 331.48 228.74 332.35 229.94 C336.53 237.69 337.44 245.36 337.39 254.05 C337.4 255.63 337.4 255.63 337.4 257.24 C337.42 260.7 337.41 264.15 337.4 267.61 C337.4 270.02 337.4 272.44 337.41 274.85 C337.41 279.9 337.41 284.95 337.39 289.99 C337.37 296.46 337.38 302.92 337.4 309.39 C337.41 314.37 337.41 319.35 337.4 324.33 C337.4 326.72 337.4 329.1 337.41 331.48 C337.42 334.81 337.4 338.14 337.39 341.47 C337.39 342.45 337.4 343.44 337.41 344.45 C337.34 351.77 335.59 356.96 330.61 362.56 C323.02 369.37 314.43 369.74 304.68 369.71 C303.33 369.72 301.97 369.74 300.62 369.75 C297.09 369.79 293.56 369.8 290.04 369.81 C286.42 369.82 282.81 369.85 279.2 369.89 C272.13 369.95 265.07 369.99 258 370 C256.54 372.92 256.89 375.5 256.9 378.76 C256.9 379.42 256.91 380.08 256.91 380.77 C256.91 382.89 256.92 385.01 256.94 387.12 C256.94 388.56 256.95 390 256.95 391.43 C256.96 394.96 256.98 398.48 257 402 C257.72 402.01 258.43 402.01 259.17 402.02 C265.97 402.08 272.76 402.15 279.56 402.24 C283.05 402.28 286.55 402.32 290.04 402.35 C294.06 402.38 298.09 402.43 302.12 402.49 C303.36 402.49 304.6 402.5 305.87 402.51 C314.05 402.64 322.09 403.04 328.81 408.12 C335.8 417.31 337.15 424.93 337.16 436.27 C337.17 437.29 337.17 438.31 337.18 439.36 C337.19 442.73 337.2 446.09 337.2 449.46 C337.21 451.8 337.21 454.15 337.22 456.5 C337.23 461.41 337.24 466.33 337.24 471.25 C337.25 477.53 337.27 483.82 337.3 490.11 C337.32 494.96 337.32 499.8 337.32 504.65 C337.33 506.97 337.33 509.28 337.35 511.6 C337.36 514.85 337.36 518.1 337.36 521.34 C337.37 522.29 337.37 523.24 337.38 524.22 C337.33 532.81 335.56 539.74 329.99 546.39 C322.38 552.54 315.33 552.6 305.88 552.61 C304.52 552.62 303.16 552.64 301.81 552.66 C298.26 552.7 294.72 552.72 291.17 552.74 C287.55 552.76 283.92 552.8 280.29 552.84 C273.2 552.91 266.1 552.97 259 553 C258.67 553.82 258.34 554.63 258.01 555.48 C257.57 556.55 257.13 557.63 256.68 558.73 C256.24 559.8 255.81 560.86 255.37 561.96 C251.36 570.88 243.64 579.41 235 584 C224.29 586.66 213 586.34 202.04 586.41 C200.19 586.43 198.35 586.45 196.5 586.47 C191.57 586.52 186.63 586.56 181.7 586.6 C177.56 586.63 173.43 586.67 169.3 586.71 C112.85 587.22 56.44 587.28 0 586 C-1.65 582.7 -1.18 579.03 -1.21 575.4 C-1.22 574.5 -1.23 573.59 -1.24 572.66 C-1.27 569.61 -1.29 566.57 -1.32 563.52 C-1.34 561.33 -1.36 559.14 -1.38 556.96 C-1.44 550.97 -1.49 544.99 -1.53 539.01 C-1.56 535.26 -1.59 531.5 -1.63 527.75 C-1.96 488.11 -2.11 448.47 -2.12 408.83 C-2.12 404.71 -2.13 400.6 -2.13 396.48 C-2.14 389.28 -2.14 382.08 -2.13 374.89 C-2.13 372.51 -2.13 370.13 -2.14 367.75 C-2.15 354.22 -1.95 340.74 -1.26 327.23 C-0.99 321.18 -1.09 315.36 -1.75 309.33 C-2.08 306.2 -2.13 303.1 -2.13 299.95 C-2.13 298.71 -2.14 297.46 -2.14 296.18 C-2.13 294.88 -2.13 293.59 -2.12 292.25 C-2.12 291.58 -2.12 290.9 -2.12 290.21 C-2.11 280.29 -1.89 270.39 -1.27 260.48 C-1.03 256.39 -0.99 252.51 -1.48 248.44 C-2.1 242.62 -2.14 236.85 -2.13 231.01 C-2.13 229.9 -2.13 228.79 -2.14 227.65 C-2.14 225.32 -2.13 223 -2.13 220.68 C-2.12 217.11 -2.13 213.55 -2.14 209.99 C-2.14 207.73 -2.13 205.46 -2.13 203.2 C-2.13 202.13 -2.14 201.07 -2.14 199.97 C-2.14 198.98 -2.13 198 -2.13 196.98 C-2.13 196.11 -2.13 195.24 -2.13 194.35 C-2 192 -2 192 -1.5 190.3 C-0.81 187.1 -0.88 184.05 -0.89 180.77 C-0.89 180.04 -0.89 179.31 -0.89 178.56 C-0.89 176.12 -0.89 173.67 -0.9 171.23 C-0.9 169.47 -0.91 167.72 -0.91 165.97 C-0.91 162.19 -0.92 158.42 -0.92 154.64 C-0.94 148.67 -0.94 142.7 -0.95 136.73 C-0.96 122.97 -0.98 109.21 -1.01 95.45 C-1.03 82.85 -1.04 70.25 -1.05 57.65 C-1.06 51.72 -1.07 45.78 -1.08 39.85 C-1.09 36.16 -1.09 32.46 -1.09 28.76 C-1.1 27.05 -1.1 25.34 -1.11 23.63 C-1.11 21.29 -1.11 18.95 -1.11 16.61 C-1.12 15.3 -1.12 13.99 -1.12 12.65 C-1 9.03 -0.56 5.57 0 2 C0 1.34 0 0.68 0 0 Z " fill="#4CC0CF" transform="translate(637,354)"/>
<path d="M0 0 C1.31 3.51 0.77 6.41 0.16 10 C-0.11 12 -0.11 12 0.48 13.89 C1.33 17.33 1.16 20.84 1.18 24.37 C1.2 26.06 1.22 27.76 1.24 29.45 C1.25 30.34 1.26 31.22 1.27 32.14 C1.39 49.79 1.39 49.79 4.06 67.19 C6.66 78.42 6.21 89.57 6.06 101.02 C5.96 110.2 6.13 119.22 6.94 128.38 C8.28 143.74 8.43 159.12 8.66 174.54 C8.68 176.05 8.68 176.05 8.71 177.59 C8.74 179.5 8.76 181.41 8.79 183.32 C8.81 184.6 8.81 184.6 8.83 185.9 C8.84 186.65 8.85 187.39 8.86 188.16 C8.89 190.1 8.89 190.1 10 192 C10.09 194.91 10.13 197.8 10.11 200.72 C10.11 201.63 10.11 202.54 10.11 203.48 C10.11 206.56 10.11 209.64 10.1 212.72 C10.1 214.92 10.09 217.12 10.09 219.33 C10.09 224.07 10.08 228.82 10.08 233.57 C10.06 241.09 10.06 248.6 10.05 256.12 C10.04 266.65 10.03 277.19 10.02 287.73 C10.02 288.74 10.02 288.74 10.02 289.76 C10.01 295.18 10 300.61 10 306.03 C9.99 310.76 9.99 315.49 9.98 320.23 C9.98 320.89 9.98 321.56 9.98 322.24 C9.96 333.36 9.95 344.49 9.95 355.61 C9.94 363.07 9.93 370.54 9.92 378 C9.91 382.66 9.91 387.31 9.91 391.97 C9.9 394.12 9.9 396.27 9.89 398.43 C9.89 401.37 9.89 404.32 9.89 407.27 C9.88 408.11 9.88 408.96 9.88 409.83 C9.88 414.02 10.02 418.18 10.32 422.36 C10.41 423.55 10.41 423.55 10.49 424.76 C11.1 427.43 12.35 428.85 14 431 C13.41 442.35 8.03 450.37 0 457.88 C-8.54 465.51 -16.76 466.61 -27.89 466.15 C-35.2 465.62 -42.43 464.05 -49.62 462.69 C-51.56 462.33 -53.5 461.98 -55.43 461.62 C-59.65 460.85 -63.87 460.07 -68.09 459.28 C-75.49 457.91 -82.9 456.55 -90.31 455.2 C-92.95 454.71 -95.59 454.23 -98.23 453.75 C-98.88 453.63 -99.53 453.51 -100.21 453.39 C-104.63 452.58 -109.06 451.76 -113.48 450.95 C-126.57 448.54 -139.66 446.16 -152.76 443.83 C-165.48 441.57 -178.17 439.22 -190.87 436.87 C-202.85 434.66 -214.83 432.49 -226.84 430.42 C-235.24 428.97 -243.62 427.41 -252 425.81 C-254.71 425.3 -257.42 424.78 -260.12 424.27 C-261.28 424.05 -262.44 423.83 -263.63 423.6 C-267.08 422.99 -270.53 422.48 -274 422 C-274 421.67 -274 421.34 -274 421 C-272.35 421 -270.7 421 -269 421 C-268.67 418.03 -268.34 415.06 -268 412 C-272.29 409.86 -275.76 409.31 -280.44 408.66 C-283.32 407.92 -284.41 407.52 -286 405 C-286.17 401.7 -285.93 398.52 -285.71 395.23 C-286.07 391.18 -287.11 389.81 -290 387 C-292.7 385.26 -292.7 385.26 -295.62 383.88 C-300.79 381.31 -300.79 381.31 -303 378 C-303.89 371.57 -302.49 368.42 -298.72 363.23 C-297.61 361.78 -296.49 360.34 -295.37 358.9 C-294.86 358.23 -294.34 357.56 -293.81 356.88 C-293.31 356.23 -292.81 355.58 -292.3 354.91 C-291.03 353.04 -290.3 351.37 -289.56 349.25 C-287.87 345.73 -287.68 345.64 -284.38 344.25 C-282.45 343.44 -282.45 343.44 -281 342 C-280.44 339.17 -280.37 336.48 -280.3 333.59 C-280 331 -280 331 -277.56 328.62 C-274.42 325.41 -274.53 323.89 -274.06 319.5 C-273.31 313.35 -273.31 313.35 -270.38 310 C-268.61 308.96 -266.85 307.92 -265.04 306.96 C-259.63 303.92 -257.2 300.71 -254.32 295.21 C-252.57 292.28 -250.8 291.21 -247.52 290.37 C-246.18 290.12 -246.18 290.12 -244.81 289.88 C-243.91 289.71 -243.01 289.54 -242.08 289.37 C-241.39 289.25 -240.71 289.12 -240 289 C-239.14 286.15 -239.14 286.15 -239.44 283.25 C-240.31 279.76 -240.71 276.53 -240 273 C-237.93 269.68 -235.53 266.77 -232 265 C-216.42 263.32 -216.42 263.32 -211.21 266.94 C-209.19 269.37 -209.19 269.37 -207.61 271.84 C-204.11 276.55 -197.6 276.84 -192.12 277.81 C-191.35 277.97 -190.57 278.13 -189.77 278.29 C-184.14 279.29 -181.02 278.77 -176 276 C-175.15 275.3 -174.31 274.6 -173.44 273.88 C-168.84 271.37 -164.85 271.56 -159.69 271.34 C-154.12 270.83 -149.15 269.11 -144 267 C-143.29 266.75 -142.58 266.5 -141.85 266.25 C-138.36 263.9 -137.28 260.19 -136.34 256.23 C-135.15 247.23 -134.4 238.21 -133.78 229.15 C-133.35 223.13 -132.58 217.33 -131.43 211.41 C-129.78 202.24 -131.36 193.7 -133.32 184.73 C-134.61 177.61 -135.52 169.58 -132 163 C-130.05 161.41 -130.05 161.41 -127.88 160.06 C-124.48 157.75 -124.48 157.75 -123.31 153.81 C-123.73 150.98 -123.73 150.98 -125.56 149.56 C-127 148 -127 148 -127.12 144.75 C-125.81 140.35 -124.09 138.84 -120.78 135.84 C-118.41 133.39 -117.17 130.8 -115.82 127.7 C-115 126 -115 126 -113 124 C-109.32 123.58 -107.4 123.78 -104.12 125.56 C-100.17 127.38 -97.07 127.34 -93 126 C-89.36 123.84 -86.32 121.1 -85 117 C-85 115.68 -85 114.36 -85 113 C-87.44 113.47 -89.81 113.94 -92.19 114.69 C-92.79 114.79 -93.38 114.89 -94 115 C-94.66 114.34 -95.32 113.68 -96 113 C-95.9 108.63 -94.64 105.65 -91.72 102.37 C-88.92 100.14 -85.69 99.19 -82.35 97.99 C-79.14 96.64 -77.35 94.53 -75 92 C-73.51 91.13 -72.01 90.28 -70.5 89.44 C-64.66 85.68 -63.1 80.38 -61 74 C-59.13 68.45 -56.85 64.1 -53.46 59.29 C-52.02 57.03 -51.08 54.88 -50.12 52.38 C-47.96 47.29 -44.78 43.79 -40 41 C-34.66 39.63 -30.69 41.5 -26 44 C-23.41 44.67 -23.41 44.67 -21 44 C-17.74 41.18 -17.05 39.57 -16.69 35.25 C-16.78 33.13 -16.97 31.13 -17.38 29.05 C-18.36 23.62 -17.63 19.05 -16.38 13.75 C-16.22 13.06 -16.07 12.38 -15.91 11.67 C-14.67 6.84 -12.84 4.14 -9 1 C-5.8 -0.07 -3.34 -0.07 0 0 Z " fill="#2F63BE" transform="translate(623,517)"/>
<path d="M0 0 C1 1 1 1 1.12 2.87 C1.12 3.68 1.12 4.5 1.11 5.34 C1.11 6.26 1.11 7.18 1.11 8.13 C1.11 9.13 1.1 10.13 1.1 11.16 C1.1 12.69 1.1 12.69 1.09 14.25 C1.09 17.52 1.08 20.79 1.06 24.06 C1.06 26.27 1.05 28.49 1.05 30.7 C1.04 36.13 1.02 41.57 1 47 C-0.26 47.09 -1.52 47.17 -2.82 47.26 C-7.49 47.58 -12.16 47.9 -16.83 48.23 C-18.86 48.37 -20.88 48.51 -22.9 48.64 C-25.81 48.84 -28.71 49.04 -31.62 49.25 C-32.53 49.31 -33.43 49.37 -34.37 49.43 C-35.21 49.49 -36.05 49.55 -36.92 49.61 C-37.66 49.66 -38.4 49.71 -39.17 49.77 C-41.09 49.91 -41.09 49.91 -43 51 C-44.9 51.14 -46.8 51.23 -48.71 51.28 C-49.85 51.32 -51 51.36 -52.17 51.39 C-53.97 51.45 -53.97 51.45 -55.81 51.5 C-58.17 51.57 -60.53 51.64 -62.89 51.72 C-63.94 51.75 -65 51.78 -66.08 51.81 C-68.81 51.99 -71.33 52.44 -74 53 C-74 53.7 -74 54.39 -74 55.11 C-73.97 72.36 -73.96 89.62 -73.95 106.87 C-73.94 115.21 -73.94 123.56 -73.92 131.9 C-73.87 172.28 -74.05 212.63 -75 253 C-83.38 253.05 -91.64 252.8 -100 252.12 C-101.1 252.05 -102.21 251.97 -103.35 251.89 C-104.41 251.8 -105.47 251.72 -106.56 251.63 C-107.51 251.56 -108.46 251.49 -109.44 251.41 C-112 251 -112 251 -116 249 C-116.33 185.64 -116.66 122.28 -117 57 C-125.12 56.98 -125.12 56.98 -132.95 57.75 C-136.93 58.24 -140.94 58.29 -144.94 58.44 C-154.37 58.83 -163.65 59.74 -173 61 C-176.05 56.84 -176.42 53.37 -176.33 48.36 C-176.33 47.64 -176.32 46.92 -176.32 46.18 C-176.32 44.66 -176.3 43.15 -176.28 41.63 C-176.25 39.31 -176.24 36.99 -176.23 34.66 C-176.23 33.19 -176.21 31.71 -176.2 30.24 C-176.2 29.54 -176.19 28.85 -176.19 28.13 C-176.12 23.23 -176.12 23.23 -175 21 C-171.25 20.35 -167.56 20.04 -163.75 19.79 C-162.62 19.71 -161.48 19.64 -160.31 19.56 C-159.24 19.5 -158.16 19.44 -157.05 19.38 C-154.05 19.14 -154.05 19.14 -151.62 18.01 C-148.95 16.98 -146.8 16.63 -143.95 16.4 C-142.56 16.28 -142.56 16.28 -141.14 16.16 C-140.19 16.09 -139.23 16.01 -138.25 15.94 C-136.34 15.78 -134.43 15.63 -132.52 15.46 C-131.67 15.4 -130.83 15.33 -129.96 15.27 C-128 15.2 -128 15.2 -127 14 C-118.83 12.49 -110.66 11.88 -102.38 11.56 C-95.8 11.3 -89.89 10.42 -83.51 8.75 C-79.16 7.82 -74.86 7.43 -70.44 7.06 C-61.88 6.35 -53.43 5.26 -44.94 4 C-10.86 -1.01 -10.86 -1.01 0 0 Z " fill="#F9FCFD" transform="translate(549,522)"/>
<path d="M0 0 C0.33 0 0.66 0 1 0 C1 6.27 1 12.54 1 19 C16.18 19.33 31.36 19.66 47 20 C51.48 35.68 52.14 48.51 52.03 64.43 C52.03 66.39 52.02 68.34 52.01 70.3 C51.99 74.49 51.97 78.68 51.95 82.87 C51.92 89.5 51.9 96.13 51.88 102.76 C51.88 103.89 51.88 105.01 51.87 106.16 C51.87 108.46 51.86 110.75 51.85 113.04 C51.81 128.47 51.76 143.9 51.68 159.33 C51.62 169.75 51.59 180.18 51.57 190.61 C51.56 196.12 51.54 201.62 51.5 207.13 C51.46 212.32 51.45 217.5 51.45 222.68 C51.45 224.57 51.44 226.47 51.42 228.36 C51.05 242.96 51.05 242.96 57 256 C59.51 257.47 61.04 257.71 64 258 C64 258.33 64 258.66 64 259 C43.21 258.67 22.42 258.34 1 258 C-0.65 254.7 -0.18 251.03 -0.21 247.4 C-0.22 246.5 -0.23 245.59 -0.24 244.66 C-0.27 241.61 -0.29 238.57 -0.32 235.52 C-0.34 233.33 -0.36 231.14 -0.38 228.95 C-0.44 222.97 -0.49 216.99 -0.53 211.01 C-0.56 207.26 -0.59 203.51 -0.63 199.76 C-0.96 159.93 -1.11 120.1 -1.12 80.26 C-1.12 76.09 -1.13 71.93 -1.13 67.76 C-1.14 60.48 -1.14 53.21 -1.13 45.94 C-1.13 43.52 -1.13 41.11 -1.14 38.69 C-1.15 25.76 -0.98 12.9 0 0 Z " fill="#49AAC8" transform="translate(636,682)"/>
<path d="M0 0 C7.26 -0.07 14.52 -0.12 21.78 -0.16 C25.15 -0.17 28.52 -0.19 31.89 -0.23 C35.78 -0.26 39.67 -0.28 43.55 -0.29 C45.35 -0.32 45.35 -0.32 47.18 -0.34 C55.3 -0.34 63.14 0.09 69.81 5.12 C76.8 14.31 78.15 21.93 78.16 33.27 C78.17 34.8 78.17 34.8 78.18 36.36 C78.19 39.73 78.2 43.09 78.2 46.46 C78.21 48.8 78.21 51.15 78.22 53.5 C78.23 58.41 78.24 63.33 78.24 68.25 C78.25 74.53 78.27 80.82 78.3 87.11 C78.32 91.96 78.32 96.8 78.32 101.65 C78.33 103.97 78.33 106.28 78.35 108.6 C78.36 111.85 78.36 115.1 78.36 118.34 C78.37 119.29 78.37 120.24 78.38 121.22 C78.33 129.81 76.56 136.74 70.99 143.39 C63.34 149.57 56.2 149.61 46.69 149.64 C45.32 149.66 43.94 149.68 42.56 149.7 C39.7 149.74 36.83 149.77 33.96 149.78 C30.28 149.81 26.6 149.85 22.92 149.9 C19.41 149.95 15.89 149.98 12.38 150.02 C11.71 150.03 11.04 150.03 10.34 150.04 C8.45 150.06 6.57 150.07 4.68 150.09 C3.07 150.1 3.07 150.1 1.42 150.11 C-1 150 -1 150 -2 149 C-3.19 142.01 -3.15 135.06 -3.15 127.98 C-3.15 126.69 -3.15 125.4 -3.16 124.07 C-3.16 120.56 -3.17 117.04 -3.17 113.53 C-3.17 111.33 -3.17 109.13 -3.17 106.93 C-3.18 99.26 -3.19 91.58 -3.19 83.9 C-3.18 76.76 -3.2 69.61 -3.21 62.46 C-3.22 56.32 -3.23 50.17 -3.23 44.02 C-3.23 40.35 -3.23 36.69 -3.24 33.02 C-3.25 28.93 -3.25 24.85 -3.24 20.76 C-3.25 19.55 -3.25 18.34 -3.26 17.1 C-3.26 15.98 -3.25 14.87 -3.25 13.72 C-3.25 12.75 -3.25 11.79 -3.25 10.79 C-2.9 6.89 -1.75 3.49 0 0 Z " fill="#428BF3" transform="translate(896,757)"/>
<path d="M0 0 C6.86 0.09 13.73 0.2 20.59 0.32 C22.92 0.36 25.25 0.39 27.58 0.42 C65.07 0.94 65.07 0.94 72 7 C77.17 13.55 80.11 19.25 80.14 27.64 C80.15 28.54 80.15 29.45 80.16 30.38 C80.16 31.84 80.16 31.84 80.16 33.34 C80.17 34.9 80.17 34.9 80.18 36.49 C80.19 39.93 80.2 43.36 80.2 46.8 C80.21 49.19 80.21 51.58 80.22 53.97 C80.23 58.99 80.24 64.01 80.24 69.03 C80.25 75.44 80.27 81.86 80.3 88.28 C80.32 93.22 80.32 98.16 80.32 103.11 C80.33 105.47 80.33 107.84 80.35 110.2 C80.36 113.51 80.36 116.83 80.36 120.14 C80.37 121.11 80.37 122.08 80.38 123.08 C80.34 130.01 79.44 136.51 75.39 142.3 C66.4 150.61 57.77 151.16 46.02 151.13 C45.08 151.13 44.14 151.13 43.18 151.14 C41.2 151.14 39.23 151.13 37.26 151.13 C34.27 151.13 31.29 151.13 28.3 151.14 C26.37 151.14 24.45 151.13 22.52 151.13 C21.2 151.14 21.2 151.14 19.86 151.14 C13.2 151.11 6.63 150.63 0 150 C-0.03 137.65 -0.05 125.29 -0.06 112.94 C-0.06 112.02 -0.06 111.1 -0.07 110.15 C-0.09 81.32 0.12 52.51 0.73 23.69 C0.76 22.45 0.78 21.21 0.81 19.93 C0.85 17.65 0.9 15.36 0.96 13.08 C0.98 12.08 1 11.08 1.02 10.05 C1.04 9.19 1.06 8.33 1.08 7.44 C1 4.86 0.57 2.51 0 0 Z " fill="#428BF3" transform="translate(894,388)"/>
<path d="M0 0 C7.01 0.12 14.01 0.24 21.02 0.37 C23.4 0.42 25.78 0.46 28.15 0.5 C64.47 1.12 64.47 1.12 70 5 C71.91 7.13 71.91 7.13 73.62 9.56 C74.19 10.35 74.76 11.13 75.35 11.94 C79.53 19.69 80.44 27.36 80.39 36.05 C80.39 37.1 80.4 38.16 80.4 39.24 C80.42 42.7 80.41 46.15 80.4 49.61 C80.4 52.02 80.4 54.44 80.41 56.85 C80.41 61.9 80.41 66.95 80.39 71.99 C80.37 78.46 80.38 84.92 80.4 91.39 C80.41 96.37 80.41 101.35 80.4 106.33 C80.4 108.72 80.4 111.1 80.41 113.48 C80.42 116.81 80.4 120.14 80.39 123.47 C80.39 124.45 80.4 125.44 80.41 126.45 C80.34 133.77 78.59 138.96 73.61 144.56 C65.97 151.41 57.48 151.69 47.68 151.49 C46.33 151.48 44.97 151.47 43.62 151.47 C40.09 151.45 36.56 151.4 33.04 151.34 C29.42 151.29 25.81 151.27 22.2 151.24 C15.13 151.19 8.06 151.11 1 151 C1 150.25 1 149.5 1 148.73 C1.02 130.54 1.04 112.35 1.05 94.15 C1.06 85.35 1.06 76.55 1.08 67.76 C1.09 60.09 1.09 52.42 1.09 44.75 C1.1 40.69 1.1 36.63 1.11 32.57 C1.11 28.74 1.11 24.92 1.11 21.1 C1.11 19.7 1.12 18.3 1.12 16.89 C1.12 14.98 1.12 13.06 1.12 11.14 C1.12 9.54 1.12 9.54 1.12 7.9 C1.01 5.15 0.62 2.67 0 0 Z " fill="#428BF3" transform="translate(894,572)"/>
<path d="M0 0 C0.33 0.66 0.66 1.32 1 2 C2.33 2.35 3.66 2.68 5 3 C8.06 4.61 10.96 6.51 13.88 8.38 C14.72 8.91 15.56 9.45 16.43 10 C24.01 14.88 31.12 20.17 38 26 C38.75 26.64 39.5 27.27 40.27 27.93 C45.97 33.15 49.71 40.43 50.12 48.24 C50.11 49.5 50.11 49.5 50.11 50.78 C50.11 51.77 50.11 52.77 50.1 53.79 C50.1 54.9 50.09 56.01 50.08 57.16 C50.08 58.36 50.07 59.57 50.07 60.81 C50.06 63.6 50.04 66.39 50.03 69.18 C50.01 72.59 49.99 76 49.98 79.41 C49.93 90.8 49.86 102.2 49.76 113.59 C49.72 119.11 49.68 124.63 49.65 130.15 C49.63 135.57 49.59 140.99 49.54 146.41 C49.52 148.45 49.51 150.5 49.5 152.55 C49.49 155.39 49.46 158.23 49.43 161.06 C49.43 161.9 49.44 162.74 49.44 163.6 C49.42 164.37 49.41 165.14 49.4 165.94 C49.39 166.94 49.39 166.94 49.38 167.96 C48.85 170.77 47.57 172.63 46 175 C45.49 175.8 44.97 176.61 44.44 177.44 C41.04 181.67 38.07 184.12 32.61 184.72 C27.38 185 22.17 184.79 16.94 184.56 C15.1 184.52 13.26 184.48 11.42 184.44 C6.95 184.34 2.47 184.19 -2 184 C-2.05 160.75 -2.08 137.5 -2.1 114.24 C-2.11 103.45 -2.13 92.65 -2.15 81.85 C-2.17 72.45 -2.18 63.04 -2.19 53.63 C-2.19 48.64 -2.2 43.66 -2.21 38.68 C-2.23 33.99 -2.23 29.3 -2.23 24.61 C-2.23 22.89 -2.23 21.17 -2.24 19.45 C-2.25 17.1 -2.25 14.75 -2.24 12.4 C-2.24 11.08 -2.24 9.77 -2.25 8.41 C-2.01 5.15 -1.41 2.92 0 0 Z " fill="#49AAC8" transform="translate(638,358)"/>
<path d="M0 0 C27.35 -0.05 54.69 -0.08 82.04 -0.1 C94.73 -0.11 107.43 -0.13 120.13 -0.15 C131.19 -0.17 142.25 -0.18 153.31 -0.19 C159.18 -0.19 165.04 -0.2 170.9 -0.21 C176.41 -0.22 181.92 -0.23 187.43 -0.23 C189.46 -0.23 191.49 -0.23 193.51 -0.24 C196.27 -0.25 199.03 -0.25 201.79 -0.24 C202.6 -0.25 203.41 -0.25 204.25 -0.26 C209.77 -0.23 209.77 -0.23 212 2 C212.23 4.8 212.23 4.8 212.2 8.32 C212.19 10.21 212.19 10.21 212.18 12.13 C212.15 14.11 212.15 14.11 212.12 16.12 C212.11 17.46 212.11 18.8 212.1 20.14 C212.07 23.43 212.04 26.71 212 30 C190.4 30.18 168.79 30.34 147.19 30.49 C137.15 30.56 127.11 30.64 117.08 30.72 C108.31 30.8 99.54 30.86 90.77 30.92 C86.14 30.95 81.52 30.98 76.9 31.03 C57.39 31.21 37.97 31.04 18.48 30.06 C17.16 30 17.16 30 15.8 29.93 C13.33 29.81 10.86 29.67 8.4 29.54 C7.66 29.5 6.92 29.46 6.16 29.42 C1.12 29.12 1.12 29.12 0 28 C-0.39 23.7 -0.47 19.38 -0.62 15.06 C-0.68 13.84 -0.73 12.62 -0.78 11.37 C-0.83 10.21 -0.87 9.04 -0.91 7.85 C-0.95 6.78 -1 5.7 -1.04 4.6 C-1 2 -1 2 0 0 Z " fill="#F9FCFD" transform="translate(637,607)"/>
<path d="M0 0 C27.35 -0.05 54.69 -0.08 82.04 -0.1 C94.73 -0.11 107.43 -0.13 120.13 -0.15 C131.19 -0.17 142.25 -0.18 153.31 -0.19 C159.18 -0.19 165.04 -0.2 170.9 -0.21 C176.41 -0.22 181.92 -0.23 187.43 -0.23 C189.46 -0.23 191.49 -0.23 193.51 -0.24 C196.27 -0.25 199.03 -0.25 201.79 -0.24 C202.6 -0.25 203.41 -0.25 204.25 -0.26 C209.77 -0.23 209.77 -0.23 212 2 C212.23 4.8 212.23 4.8 212.2 8.32 C212.19 10.21 212.19 10.21 212.18 12.13 C212.15 14.11 212.15 14.11 212.12 16.12 C212.11 17.46 212.11 18.8 212.1 20.14 C212.07 23.43 212.04 26.71 212 30 C189.8 30.02 167.61 30.04 145.41 30.05 C135.1 30.06 124.79 30.06 114.48 30.08 C105.48 30.09 96.47 30.09 87.47 30.09 C82.72 30.1 77.97 30.1 73.22 30.11 C54.29 30.13 35.37 30.05 16.45 29.56 C15.66 29.54 14.88 29.52 14.07 29.5 C11.88 29.44 9.69 29.38 7.5 29.31 C6.27 29.28 5.03 29.24 3.75 29.2 C1 29 1 29 0 28 C-0.09 25.93 -0.11 23.85 -0.1 21.78 C-0.09 20.52 -0.09 19.26 -0.09 17.96 C-0.08 16.62 -0.07 15.28 -0.06 13.94 C-0.06 12.59 -0.05 11.25 -0.05 9.9 C-0.04 6.6 -0.02 3.3 0 0 Z " fill="#F9FCFD" transform="translate(637,542)"/>
<path d="M0 0 C10.4 -0.05 20.79 -0.08 31.19 -0.1 C36.02 -0.11 40.84 -0.13 45.67 -0.15 C50.32 -0.17 54.98 -0.18 59.64 -0.19 C61.41 -0.19 63.19 -0.2 64.97 -0.21 C67.46 -0.23 69.94 -0.23 72.43 -0.23 C73.54 -0.24 73.54 -0.24 74.67 -0.25 C79.77 -0.23 79.77 -0.23 82 2 C82.23 4.8 82.23 4.8 82.2 8.32 C82.19 9.58 82.18 10.83 82.18 12.13 C82.15 14.11 82.15 14.11 82.12 16.12 C82.11 17.46 82.11 18.8 82.1 20.14 C82.07 23.43 82.04 26.71 82 30 C61.94 30.83 41.95 31.09 21.88 30.62 C20.89 30.6 19.91 30.58 18.91 30.56 C16.12 30.5 13.34 30.43 10.55 30.35 C9.3 30.32 9.3 30.32 8.02 30.29 C2.23 30.12 2.23 30.12 0 29 C-0.2 24.54 -0.38 20.08 -0.56 15.62 C-0.62 14.35 -0.67 13.08 -0.73 11.77 C-0.8 9.96 -0.8 9.96 -0.88 8.1 C-0.93 6.98 -0.97 5.86 -1.02 4.71 C-1 2 -1 2 0 0 Z " fill="#F9FCFD" transform="translate(637,672)"/>
<path d="M0 0 C0.33 0 0.66 0 1 0 C1.12 8.49 0.89 16.78 0.12 25.23 C-0.22 27.96 -0.22 27.96 1 30 C1.1 33 1.13 35.98 1.12 38.99 C1.12 40.41 1.12 40.41 1.12 41.86 C1.12 45.06 1.11 48.27 1.11 51.48 C1.11 53.79 1.11 56.1 1.11 58.41 C1.1 64.12 1.1 69.83 1.09 75.53 C1.08 82.37 1.08 89.2 1.07 96.03 C1.07 108.64 1.06 121.25 1.04 133.86 C1.03 151.88 1.02 169.9 1.01 187.91 C1.01 195.14 1 202.37 1 209.59 C1 210.4 1 211.2 1 212.03 C0.99 231.15 0.98 250.27 0.97 269.4 C0.97 270.23 0.96 271.07 0.96 271.93 C0.95 291.46 0.94 310.98 0.92 330.51 C0.92 331.35 0.92 332.19 0.92 333.05 C0.92 337.29 0.91 341.52 0.91 345.75 C0.91 346.59 0.91 347.43 0.91 348.29 C0.9 349.98 0.9 351.66 0.9 353.35 C0.88 381.25 0.86 409.14 0.85 437.03 C0.85 440.97 0.85 444.91 0.85 448.84 C0.85 450.01 0.85 450.01 0.85 451.19 C0.84 463.68 0.83 476.16 0.82 488.64 C0.8 501.18 0.79 513.73 0.79 526.27 C0.79 533.07 0.79 539.87 0.78 546.67 C0.76 552.89 0.76 559.11 0.77 565.33 C0.77 567.58 0.76 569.83 0.76 572.09 C0.75 575.14 0.75 578.2 0.76 581.26 C0.75 582.14 0.75 583.02 0.74 583.92 C0.78 591.11 2.1 597.37 5 604 C5.66 604 6.32 604 7 604 C7.32 606.42 7.63 608.83 7.94 611.25 C8.03 611.97 8.12 612.7 8.22 613.44 C8.9 618.83 9.33 624.21 9.56 629.64 C9.78 632.06 9.78 632.06 11.49 633.47 C13.69 635.7 13.51 637.62 13.69 640.69 C13.75 641.68 13.82 642.68 13.89 643.7 C13.92 644.46 13.96 645.22 14 646 C9 641 8.14 632.62 6.75 625.95 C6.08 623.33 5.22 621.39 4 619 C3.55 617.33 3.15 615.64 2.81 613.94 C2.63 613.08 2.45 612.22 2.27 611.34 C2 609 2 609 3 606 C2.09 604.55 1.11 603.14 0.11 601.75 C-5.03 592.62 -3.82 582.26 -3.74 572.07 C-3.75 569.71 -3.75 567.36 -3.76 565 C-3.78 559.21 -3.77 553.42 -3.75 547.63 C-3.72 540.7 -3.73 533.76 -3.74 526.82 C-3.76 514.01 -3.75 501.2 -3.73 488.39 C-3.7 475.7 -3.69 463.01 -3.69 450.31 C-3.69 449.52 -3.69 448.73 -3.69 447.92 C-3.69 444.71 -3.69 441.5 -3.69 438.29 C-3.69 408.19 -3.66 378.09 -3.61 347.99 C-3.57 321.28 -3.55 294.57 -3.56 267.87 C-3.56 266.15 -3.56 264.44 -3.56 262.73 C-3.56 261.88 -3.56 261.03 -3.56 260.16 C-3.56 255.9 -3.56 251.63 -3.56 247.37 C-3.56 246.53 -3.56 245.68 -3.56 244.82 C-3.56 222.47 -3.54 200.12 -3.53 177.78 C-3.53 176.98 -3.52 176.19 -3.52 175.37 C-3.52 172.17 -3.52 168.97 -3.52 165.77 C-3.51 154.67 -3.5 143.57 -3.5 132.46 C-3.5 118.15 -3.49 103.83 -3.46 89.51 C-3.44 82.61 -3.43 75.71 -3.44 68.81 C-3.44 62.48 -3.43 56.15 -3.41 49.82 C-3.4 47.55 -3.4 45.27 -3.41 43 C-3.44 28.42 -2.37 14.39 0 0 Z " fill="#CDD3D9" transform="translate(122,349)"/>
<path d="M0 0 C2 2 2 2 2.23 4.43 C2.22 5.43 2.21 6.42 2.2 7.45 C2.19 8.52 2.18 9.6 2.18 10.71 C2.16 11.83 2.14 12.96 2.12 14.12 C2.12 15.26 2.11 16.4 2.1 17.57 C2.07 20.38 2.04 23.19 2 26 C3.57 26.04 3.57 26.04 5.16 26.08 C9.07 26.17 12.98 26.27 16.89 26.37 C18.57 26.42 20.26 26.46 21.94 26.5 C24.38 26.56 26.81 26.62 29.25 26.68 C29.99 26.7 30.73 26.72 31.49 26.73 C46.14 27.14 46.14 27.14 49 30 C51.18 37.31 53 44.53 51 52 C49.25 55.19 49.25 55.19 47 58 C46.33 58.87 45.66 59.75 44.96 60.65 C40.77 63.98 37.53 63.64 32.32 63.49 C31.4 63.48 30.47 63.47 29.52 63.47 C26.58 63.44 23.63 63.38 20.69 63.31 C18.69 63.29 16.69 63.26 14.69 63.24 C9.79 63.19 4.9 63.1 0 63 C-0.9 55.63 -1.15 48.36 -1.13 40.94 C-1.13 39.82 -1.13 38.71 -1.14 37.56 C-1.14 35.23 -1.13 32.9 -1.13 30.57 C-1.12 26.98 -1.13 23.4 -1.14 19.82 C-1.14 17.54 -1.13 15.27 -1.13 13 C-1.13 11.93 -1.14 10.85 -1.14 9.75 C-1.14 8.76 -1.13 7.77 -1.13 6.75 C-1.13 5.88 -1.13 5.01 -1.13 4.11 C-1 2 -1 2 0 0 Z " fill="#49AAC8" transform="translate(636,544)"/>
<path d="M0 0 C0.33 0 0.66 0 1 0 C1.33 6.6 1.66 13.2 2 20 C6.23 20.18 6.23 20.18 10.54 20.37 C13.28 20.49 16.02 20.62 18.76 20.74 C20.66 20.83 22.56 20.91 24.46 20.99 C27.19 21.11 29.93 21.24 32.66 21.37 C33.51 21.4 34.35 21.43 35.22 21.47 C39.79 21.7 43.74 22.16 48 24 C49.79 26.74 50.32 29.82 51 33 C51.17 33.76 51.33 34.53 51.5 35.31 C52.57 41.8 51.23 46.34 47.85 51.89 C45.79 54.66 44.21 56.67 40.8 57.61 C38.18 57.81 35.64 57.79 33.01 57.68 C32.06 57.67 31.12 57.66 30.14 57.65 C27.13 57.61 24.13 57.53 21.12 57.44 C19.08 57.4 17.04 57.37 14.99 57.34 C9.99 57.26 5 57.14 0 57 C-0.96 48.23 -1.15 39.57 -1.12 30.75 C-1.13 29.45 -1.13 28.14 -1.14 26.8 C-1.13 17.82 -0.7 8.95 0 0 Z " fill="#49AAC8" transform="translate(636,615)"/>
<path d="M0 0 C0.89 -0 1.77 -0 2.69 -0 C5.65 -0.01 8.61 -0 11.56 -0 C13.71 -0 15.86 -0 18.01 -0.01 C23.91 -0.01 29.8 -0.01 35.7 -0 C42.06 -0 48.43 -0.01 54.79 -0.01 C66.54 -0.01 78.29 -0.01 90.04 -0.01 C100.92 -0.01 111.79 -0.01 122.67 -0.01 C123.75 -0.01 123.75 -0.01 124.86 -0.01 C127.79 -0.01 130.73 -0.01 133.66 -0.01 C161.19 -0.01 188.73 -0.01 216.26 -0 C240.64 0 265.02 0 289.39 -0 C316.83 -0.01 344.27 -0.01 371.71 -0.01 C374.65 -0.01 377.58 -0.01 380.52 -0.01 C381.61 -0.01 381.61 -0.01 382.71 -0.01 C393.55 -0.01 404.39 -0.01 415.23 -0.01 C427.6 -0.01 439.97 -0.01 452.34 -0.01 C458.63 -0 464.92 -0 471.22 -0.01 C493.31 -0.02 515.41 -0.01 537.5 0.45 C539.29 0.49 541.08 0.52 542.87 0.55 C545.3 0.6 547.73 0.66 550.17 0.72 C550.87 0.73 551.58 0.74 552.31 0.75 C555.98 0.86 558.48 1.34 561.67 3.13 C564 3.17 566.34 3.17 568.67 3.13 C570.34 3.41 572.02 3.73 573.67 4.13 C569.84 7.95 563.87 8.06 558.65 8.22 C555.5 8.17 552.37 8.04 549.23 7.88 C548.16 7.84 547.08 7.8 545.98 7.75 C538.06 7.39 538.06 7.39 534.67 5.13 C532.52 4.76 532.52 4.76 530.12 4.72 C529.21 4.68 528.29 4.64 527.35 4.6 C526.36 4.57 525.38 4.54 524.36 4.51 C523.33 4.47 522.3 4.43 521.24 4.39 C510.7 4.04 500.17 3.99 489.63 4 C487.51 4 485.4 4 483.28 3.99 C477.54 3.99 471.8 3.99 466.07 4 C459.85 4 453.63 3.99 447.41 3.99 C435.96 3.99 424.51 3.99 413.06 3.99 C402.47 3.99 391.89 3.99 381.3 3.99 C380.6 3.99 379.89 3.99 379.17 3.99 C376.31 3.99 373.45 3.99 370.58 3.99 C343.79 3.99 317 3.99 290.21 4 C266.46 4 242.72 4 218.97 4 C192.22 3.99 165.48 3.99 138.74 3.99 C135.88 3.99 133.02 3.99 130.17 3.99 C129.11 3.99 129.11 3.99 128.04 3.99 C117.47 3.99 106.9 3.99 96.32 3.99 C84.29 3.99 72.26 3.99 60.23 3.99 C54.1 4 47.97 4 41.84 3.99 C36.21 3.99 30.58 3.99 24.95 4 C22.94 4 20.92 4 18.9 4 C8.2 3.98 -2.47 4.14 -13.15 4.57 C-14.63 4.63 -14.63 4.63 -16.13 4.69 C-26.71 4.9 -26.71 4.9 -36.77 7.63 C-39.86 8.93 -41.64 9.39 -44.87 9.66 C-45.76 9.74 -46.64 9.82 -47.55 9.9 C-48.92 10.01 -48.92 10.01 -50.33 10.13 C-53.05 10.36 -55.76 10.59 -58.48 10.83 C-60.32 10.99 -62.16 11.14 -64 11.29 C-65.34 11.41 -65.34 11.41 -66.7 11.53 C-67.89 11.63 -67.89 11.63 -69.11 11.73 C-71.5 12.16 -73.18 13.03 -75.33 14.13 C-77.35 14.54 -77.35 14.54 -79.44 14.76 C-80.19 14.84 -80.95 14.93 -81.73 15.01 C-82.5 15.09 -83.28 15.17 -84.08 15.25 C-84.87 15.34 -85.67 15.42 -86.48 15.51 C-88.43 15.72 -90.38 15.93 -92.33 16.13 C-88.76 12.56 -83.88 12.12 -79.02 11.69 C-75.59 11.37 -72.6 10.65 -69.33 9.56 C-66.03 8.5 -63.36 7.98 -59.89 8.13 C-54.4 8.35 -49.54 6.71 -44.33 5.13 C-41.78 4.43 -39.48 4.02 -36.83 3.69 C-33.49 3.35 -33.49 3.35 -31.4 2.09 C-28.96 0.95 -27.39 0.95 -24.71 1.06 C-21.32 1.19 -18.09 1.01 -14.72 0.63 C-9.8 0.13 -4.95 -0.01 0 0 Z " fill="#858585" transform="translate(368.3306894302368,117.87415885925293)"/>
<path d="M0 0 C1.88 0.19 1.88 0.19 4 1 C4.29 1.74 4.58 2.48 4.88 3.25 C6.15 6.35 7.69 7.36 10.29 9.35 C13.29 12.24 15.19 15.89 17.34 19.42 C19.25 22.38 21.42 24.62 24 27 C24.95 28.12 25.88 29.24 26.81 30.38 C29.64 33.72 32.77 36.52 36.1 39.36 C42.39 44.79 42.39 44.79 44 48 C45.66 49.01 47.33 50.01 49 51 C50 52 51 53 52 54 C52.64 54.31 53.28 54.62 53.94 54.94 C56.45 56.23 58.01 58.01 60 60 C60.72 60.35 61.44 60.7 62.19 61.06 C64 62 64 62 65 65 C66.32 65.37 67.66 65.71 69 66 C69.33 66.66 69.66 67.32 70 68 C70.99 68 71.98 68 73 68 C73.66 68.66 74.32 69.32 75 70 C76.24 70.46 76.24 70.46 77.5 70.94 C80 72 80 72 82 75 C83.65 75.39 85.32 75.72 87 76 C89.59 77.11 90.98 77.98 93 80 C94.65 80.71 96.32 81.38 98 82 C98 82.66 98 83.32 98 84 C104.01 85.96 109.7 87.42 116 88 C116.33 88.99 116.66 89.98 117 91 C120.3 91 123.6 91 127 91 C127 91.66 127 92.32 127 93 C127.76 92.81 128.53 92.63 129.31 92.44 C132 92 132 92 135 93 C135.33 93.66 135.66 94.32 136 95 C140.93 97.19 145.24 97.18 150.5 97 C155.85 96.81 159.92 97.03 165 99 C166.99 99.37 168.99 99.71 171 100 C171 100.66 171 101.32 171 102 C172.98 102 174.96 102 177 102 C177 102.33 177 102.66 177 103 C162.8 103.53 148.86 100.86 135 98 C134.28 97.85 133.57 97.71 132.83 97.55 C124.44 95.8 116.6 93.73 108.74 90.2 C106.13 89.06 103.52 88.14 100.81 87.25 C95.73 85.44 91.02 83.07 86.25 80.56 C85.54 80.19 84.83 79.82 84.1 79.44 C79.45 76.94 75.26 74.11 71 71 C69.77 70.26 68.52 69.55 67.25 68.88 C64.57 67.33 63.07 66.16 61 64 C60.24 63.55 59.47 63.09 58.69 62.62 C56 61 56 61 53.06 58.5 C50.18 55.95 50.18 55.95 47.12 54.62 C40.74 51.3 35.84 46.11 31.32 40.58 C29.15 37.98 27.66 36.24 24.44 35.06 C21.44 33.75 21.33 32.89 20 30 C16.87 24.82 13.31 20.09 9.44 15.44 C0 4.09 0 4.09 0 0 Z " fill="#000100" transform="translate(160,1051)"/>
<path d="M0 0 C0.86 -0 1.72 -0.01 2.61 -0.01 C4.03 -0.01 4.03 -0.01 5.47 -0 C6.47 -0 7.47 -0.01 8.5 -0.01 C11.82 -0.01 15.15 -0.01 18.47 -0.01 C20.81 -0.01 23.15 -0.01 25.5 -0.01 C30.44 -0.01 35.38 -0.01 40.32 -0 C46.53 0 52.73 -0 58.93 -0.01 C81.26 -0.02 103.58 -0.01 125.9 0.45 C127.67 0.49 129.44 0.52 131.21 0.56 C133.61 0.6 136.01 0.66 138.42 0.72 C139.11 0.73 139.81 0.74 140.52 0.75 C144.16 0.86 146.62 1.37 149.78 3.13 C152.11 3.17 154.44 3.17 156.78 3.13 C158.45 3.41 160.13 3.73 161.78 4.13 C157.95 7.95 151.98 8.06 146.76 8.22 C143.61 8.17 140.48 8.04 137.34 7.88 C136.27 7.84 135.19 7.8 134.08 7.76 C126.17 7.39 126.17 7.39 122.78 5.13 C119.68 4.8 116.68 4.61 113.58 4.5 C112.58 4.46 111.59 4.43 110.57 4.39 C92.83 3.81 75.06 4.07 57.31 4.14 C51.21 4.16 45.11 4.18 39.01 4.19 C38.17 4.19 37.33 4.19 36.47 4.19 C22.22 4.21 8.01 3.87 -6.22 3.13 C-6.55 2.47 -6.88 1.81 -7.22 1.13 C-4.46 0.21 -2.84 0 0 0 Z " fill="#474949" transform="translate(780.2229309082031,117.87301635742188)"/>
<path d="M0 0 C0.33 0 0.66 0 1 0 C1.14 10.17 1.02 20.28 -0.51 30.36 C-1.26 36.37 -1.15 42.4 -1.16 48.45 C-1.16 49.82 -1.17 51.18 -1.17 52.54 C-1.19 56.28 -1.19 60.01 -1.2 63.74 C-1.21 67.77 -1.22 71.81 -1.24 75.84 C-1.26 82.82 -1.28 89.8 -1.29 96.78 C-1.31 106.87 -1.34 116.96 -1.37 127.05 C-1.42 143.42 -1.46 159.79 -1.5 176.17 C-1.54 192.07 -1.58 207.97 -1.63 223.88 C-1.63 224.86 -1.63 225.84 -1.64 226.85 C-1.65 231.77 -1.66 236.69 -1.68 241.61 C-1.79 282.4 -1.9 323.2 -2 364 C-2.33 364 -2.66 364 -3 364 C-3.07 320.81 -3.12 277.61 -3.15 234.42 C-3.16 229.31 -3.16 224.2 -3.16 219.09 C-3.17 218.07 -3.17 217.06 -3.17 216.01 C-3.18 199.58 -3.2 183.15 -3.23 166.72 C-3.26 149.84 -3.28 132.96 -3.28 116.08 C-3.29 105.68 -3.3 95.28 -3.32 84.88 C-3.34 77.73 -3.34 70.58 -3.34 63.43 C-3.34 59.31 -3.34 55.2 -3.36 51.08 C-3.42 33.85 -3.03 17.03 0 0 Z " fill="#474949" transform="translate(122,349)"/>
<path d="M0 0 C0.33 0 0.66 0 1 0 C1.01 1.15 1.02 2.29 1.02 3.48 C1.1 14.31 1.19 25.13 1.29 35.96 C1.34 41.53 1.38 47.1 1.42 52.66 C1.46 58.04 1.51 63.41 1.56 68.79 C1.58 70.84 1.59 72.88 1.6 74.93 C1.62 77.81 1.65 80.68 1.68 83.55 C1.68 84.4 1.69 85.24 1.69 86.1 C1.76 91.39 2.6 95.91 4 101 C4.12 103.91 4.12 103.91 4 106.5 C3.87 113.22 5.3 118.82 8 125 C8.66 125 9.32 125 10 125 C10.32 127.42 10.63 129.83 10.94 132.25 C11.03 132.97 11.12 133.7 11.22 134.44 C11.9 139.83 12.33 145.21 12.56 150.64 C12.78 153.06 12.78 153.06 14.49 154.47 C16.69 156.7 16.51 158.62 16.69 161.69 C16.79 163.18 16.79 163.18 16.89 164.7 C16.92 165.46 16.96 166.22 17 167 C12 162 11.14 153.62 9.75 146.95 C9.08 144.33 8.22 142.39 7 140 C6.55 138.33 6.15 136.64 5.81 134.94 C5.63 134.08 5.45 133.22 5.27 132.34 C5 130 5 130 6 127 C4.8 124.61 4.8 124.61 3.11 122.06 C-0.38 115.9 -0.82 111.07 -0.68 104.1 C-0.68 102.97 -0.68 101.84 -0.68 100.67 C-0.68 96.96 -0.63 93.26 -0.59 89.55 C-0.57 86.97 -0.57 84.38 -0.56 81.8 C-0.54 75.71 -0.49 69.63 -0.43 63.54 C-0.36 56.61 -0.33 49.68 -0.3 42.74 C-0.24 28.49 -0.13 14.25 0 0 Z " fill="#494B4B" transform="translate(119,828)"/>
<path d="M0 0 C3.6 3.08 4.83 4.94 5.56 9.62 C5 13 5 13 3.69 15.44 C-0.68 17.98 -5.08 17.72 -10 17 C-13.32 15.21 -14.49 14 -16.19 10.69 C-15.89 6.4 -13.05 3.87 -10 1 C-6.75 -0.62 -3.5 -0.7 0 0 Z " fill="#3169C0" transform="translate(591,566)"/>
<path d="M0 0 C1.59 2.82 2.25 4.84 2.25 8.08 C2.25 8.88 2.26 9.69 2.26 10.51 C2.25 11.39 2.25 12.26 2.24 13.16 C2.24 14.09 2.25 15.02 2.25 15.97 C2.25 19.05 2.24 22.13 2.23 25.2 C2.23 27.36 2.23 29.52 2.23 31.67 C2.23 36.21 2.22 40.74 2.21 45.28 C2.19 51.02 2.18 56.77 2.19 62.51 C2.19 66.98 2.18 71.45 2.17 75.91 C2.17 78.03 2.17 80.14 2.17 82.25 C2.16 97.19 1.73 112.08 1 127 C0.67 127 0.34 127 0 127 C-0.33 117.43 -0.66 107.86 -1 98 C-0.67 98 -0.34 98 0 98 C0.06 95.88 0.09 93.75 0.12 91.62 C0.16 89.85 0.16 89.85 0.2 88.04 C0.15 85.02 -0.33 82.29 -1 79.35 C-2.03 74.31 -2.28 69.53 -2.23 64.4 C-2.23 63.52 -2.23 62.64 -2.23 61.73 C-2.23 59.88 -2.22 58.03 -2.21 56.18 C-2.19 53.4 -2.19 50.63 -2.19 47.85 C-2.16 33.16 -1.3 18.63 0 4 C-0.66 4 -1.32 4 -2 4 C-2 3.34 -2 2.68 -2 2 C-1.34 2 -0.68 2 0 2 C0 1.34 0 0.68 0 0 Z " fill="#000100" transform="translate(1155,329)"/>
<path d="M0 0 C1.4 4.21 -0.14 6.07 -2 10 C-2.53 10.9 -2.53 10.9 -3.07 11.82 C-4.31 14.73 -4.36 17.34 -4.5 20.5 C-4.78 26.63 -4.78 26.63 -6 28.7 C-7.45 32.04 -7.34 35.35 -7.38 38.94 C-7.4 39.71 -7.41 40.47 -7.43 41.26 C-7.48 43.69 -7.52 46.13 -7.56 48.56 C-7.61 51 -7.65 53.44 -7.71 55.88 C-7.74 57.39 -7.76 58.91 -7.79 60.43 C-7.85 63.54 -8.01 66.03 -9 69 C-9.13 71.11 -9.2 73.23 -9.25 75.35 C-9.28 76.59 -9.31 77.84 -9.35 79.12 C-9.41 81.75 -9.46 84.38 -9.52 87.02 C-9.55 88.26 -9.59 89.5 -9.62 90.79 C-9.65 91.93 -9.67 93.07 -9.7 94.25 C-10 97 -10 97 -12 99 C-12 88.77 -12 78.54 -12 68 C-13.43 74.46 -13.43 74.46 -14 81 C-14.66 81 -15.32 81 -16 81 C-16.13 73.46 -16.13 73.46 -15.48 71.09 C-14.86 68.41 -15.06 66 -15.19 63.25 C-15.24 59.27 -15.17 56.64 -13.06 53.25 C-10.35 48.74 -10.44 43.92 -10.33 38.81 C-10.21 34.48 -9.42 31.06 -8 27 C-7.87 24.82 -7.87 24.82 -8.06 22.75 C-8.24 14.07 -4.93 6.97 0 0 Z " fill="#7D7D7E" transform="translate(137,265)"/>
<path d="M0 0 C2.71 -0.05 5.42 -0.09 8.12 -0.12 C8.89 -0.14 9.65 -0.16 10.43 -0.18 C15.12 -0.22 18.53 0.47 23 2 C27.87 2.79 32.78 3.3 37.68 3.86 C38.67 3.98 39.67 4.1 40.69 4.22 C41.59 4.32 42.49 4.42 43.42 4.53 C46.15 5.03 48.45 5.92 51 7 C52.56 7.33 54.12 7.62 55.69 7.88 C61.12 8.9 65.95 10.8 71 13 C71.65 13.27 72.3 13.54 72.97 13.82 C83.16 18.08 83.16 18.08 85.81 21 C88.62 23.57 91.36 24.27 94.98 25.29 C97.98 26.35 99.78 28.78 102 31 C97.85 31 96.3 30.17 92.85 28.07 C90.8 26.83 90.8 26.83 87.62 25.56 C84.85 24.37 82.46 23.14 79.88 21.62 C75.12 18.91 70.16 17.06 65.02 15.21 C62.12 14.05 59.65 12.63 57 11 C53.28 9.76 49.79 9.68 45.89 9.48 C43 9 43 9 40.3 7.52 C35.76 5.43 31.51 5.31 26.56 5 C17.5 4.32 8.85 3.07 0 1 C0 0.67 0 0.34 0 0 Z " fill="#545656" transform="translate(942,123)"/>
<path d="M0 0 C1.69 -0 3.38 -0 5.07 -0 C8.58 -0 12.09 -0 15.61 0 C20.09 0.01 24.58 0 29.07 -0 C32.54 -0 36.02 -0 39.5 -0 C41.15 -0 42.81 -0 44.46 -0 C46.77 -0.01 49.08 -0 51.4 0 C52.71 0 54.02 0.01 55.37 0.01 C59.37 0.14 63.2 0.58 67.17 1.13 C63.47 3.6 60.67 3.41 56.4 3.38 C55.61 3.38 54.82 3.38 54 3.38 C51.38 3.39 48.76 3.37 46.14 3.36 C44.31 3.36 42.48 3.36 40.66 3.36 C36.82 3.36 32.98 3.35 29.14 3.34 C24.25 3.32 19.36 3.32 14.46 3.32 C10.68 3.32 6.9 3.31 3.12 3.31 C1.32 3.3 -0.48 3.3 -2.28 3.3 C-11.85 3.29 -21.31 3.17 -30.83 2.13 C-30.83 1.8 -30.83 1.47 -30.83 1.13 C-20.53 0.14 -10.34 -0.01 0 0 Z " fill="#000100" transform="translate(369.83203125,1152.8671875)"/>
<path d="M0 0 C1.88 0.19 1.88 0.19 4 1 C4.29 1.74 4.58 2.48 4.88 3.25 C6.15 6.35 7.69 7.36 10.29 9.35 C13.29 12.24 15.19 15.89 17.34 19.42 C19.25 22.38 21.42 24.62 24 27 C24.95 28.12 25.88 29.24 26.81 30.38 C29.64 33.72 32.77 36.52 36.1 39.36 C42.39 44.79 42.39 44.79 44 48 C44.82 48.45 45.65 48.91 46.5 49.38 C49 51 49 51 49.81 53.19 C49.91 54.08 49.91 54.08 50 55 C41.84 54 36.24 46.64 31.29 40.54 C29.13 37.96 27.65 36.24 24.44 35.06 C21.44 33.75 21.33 32.89 20 30 C16.87 24.82 13.31 20.09 9.44 15.44 C0 4.09 0 4.09 0 0 Z M50 53 C52 54 52 54 52 54 Z " fill="#010201" transform="translate(160,1051)"/>
<path d="M0 0 C5.77 -0.05 11.53 -0.09 17.3 -0.11 C19.26 -0.12 21.22 -0.13 23.18 -0.15 C26 -0.18 28.82 -0.19 31.64 -0.2 C32.52 -0.21 33.39 -0.22 34.3 -0.23 C35.12 -0.23 35.94 -0.23 36.78 -0.23 C37.5 -0.23 38.22 -0.24 38.96 -0.24 C41.33 0.04 42.89 0.93 45 2 C47.33 2.04 49.67 2.04 52 2 C53.68 2.29 55.35 2.6 57 3 C53.17 6.83 47.2 6.93 41.98 7.1 C38.84 7.05 35.7 6.92 32.56 6.75 C31.49 6.71 30.41 6.67 29.31 6.63 C21.39 6.26 21.39 6.26 18 4 C15.97 3.64 15.97 3.64 13.77 3.59 C12.97 3.55 12.16 3.51 11.34 3.47 C10.09 3.42 10.09 3.42 8.81 3.38 C7.97 3.34 7.12 3.3 6.25 3.26 C4.17 3.16 2.08 3.08 0 3 C0 2.01 0 1.02 0 0 Z " fill="#6C6D6D" transform="translate(885,119)"/>
<path d="M0 0 C-0.33 1.32 -0.66 2.64 -1 4 C-1.68 4.03 -2.36 4.05 -3.06 4.08 C-6.19 4.19 -9.31 4.32 -12.44 4.44 C-13.51 4.48 -14.58 4.52 -15.68 4.56 C-26.82 4.7 -26.82 4.7 -37.44 7.5 C-40.53 8.8 -42.31 9.26 -45.54 9.54 C-46.43 9.61 -47.31 9.69 -48.22 9.77 C-49.59 9.88 -49.59 9.88 -51 10 C-53.72 10.23 -56.43 10.47 -59.15 10.7 C-60.99 10.86 -62.83 11.01 -64.67 11.16 C-66.01 11.28 -66.01 11.28 -67.37 11.4 C-68.56 11.5 -68.56 11.5 -69.78 11.61 C-72.17 12.03 -73.85 12.9 -76 14 C-78.01 14.41 -78.01 14.41 -80.11 14.63 C-80.86 14.72 -81.62 14.8 -82.39 14.89 C-83.17 14.97 -83.95 15.04 -84.75 15.12 C-85.54 15.21 -86.34 15.3 -87.15 15.39 C-89.1 15.6 -91.05 15.8 -93 16 C-89.43 12.43 -84.55 11.99 -79.69 11.56 C-76.25 11.25 -73.27 10.52 -70 9.44 C-66.69 8.37 -64.03 7.86 -60.56 8 C-55.07 8.22 -50.21 6.58 -45 5 C-42.44 4.31 -40.15 3.89 -37.5 3.56 C-34.16 3.22 -34.16 3.22 -32.07 1.97 C-29.63 0.83 -28.05 0.83 -25.38 0.94 C-21.86 1.01 -18.5 0.9 -15 0.5 C-9.99 -0.06 -5.04 -0.1 0 0 Z " fill="#565757" transform="translate(369,118)"/>
<path d="M0 0 C3.12 2.31 3.12 2.31 5 5 C5 7.61 4.33 8.59 2.73 10.6 C-0.59 13.29 -4.94 12.36 -9 12 C-12.04 11.48 -15.02 10.81 -18 10 C-17.68 6.53 -17.37 4.47 -15.19 1.69 C-10.63 -1.83 -5.38 -1.4 0 0 Z " fill="#3068BF" transform="translate(381,931)"/>
<path d="M0 0 C-3.05 1.6 -5.97 2.99 -9.25 4.06 C-12.1 4.81 -12.1 4.81 -14 7 C-17 7.83 -20.01 8.47 -23.05 9.12 C-26.01 10 -27.6 11.13 -30 13 C-30.99 13 -31.98 13 -33 13 C-33 13.99 -33 14.98 -33 16 C-36.13 17.86 -38.37 18.2 -42 18 C-42 18.66 -42 19.32 -42 20 C-43.29 20.67 -44.58 21.34 -45.88 22 C-46.59 22.37 -47.31 22.74 -48.05 23.12 C-50 24 -50 24 -52 24 C-52.09 24.93 -52.09 24.93 -52.19 25.88 C-53 28 -53 28 -55.25 29.06 C-56.61 29.53 -56.61 29.53 -58 30 C-62.11 32.01 -62.11 32.01 -64 36 C-65.97 37.37 -67.98 38.7 -70 40 C-71.79 41.62 -71.79 41.62 -73 43 C-73.66 42.67 -74.32 42.34 -75 42 C-72.62 37.24 -72.62 37.24 -69.56 36.06 C-66.71 35.16 -66.71 35.16 -65.06 32.06 C-62.69 28.55 -60.75 27.79 -57 26 C-56.69 25.34 -56.38 24.68 -56.06 24 C-54.65 21.33 -52.85 20.95 -50.12 19.91 C-47.61 18.83 -45.39 17.49 -43.06 16.06 C-35.9 11.69 -28.6 8.4 -20.82 5.23 C-18.47 4.21 -16.41 3.11 -14.25 1.75 C-9.55 -0.78 -5.21 -1.74 0 0 Z " fill="#565858" transform="translate(276,135)"/>
<path d="M0 0 C0.33 0 0.66 0 1 0 C2.25 6.77 2.14 13.49 2.13 20.35 C2.13 21.64 2.13 22.93 2.14 24.26 C2.14 26.99 2.14 29.72 2.13 32.45 C2.12 35.91 2.13 39.37 2.13 42.83 C2.14 46.17 2.14 49.51 2.13 52.85 C2.13 54.07 2.14 55.3 2.14 56.56 C2.08 78.92 2.08 78.92 -1 82 C-1.97 73.45 -2.15 64.99 -2.13 56.39 C-2.13 55.01 -2.13 53.63 -2.14 52.25 C-2.14 49.38 -2.14 46.51 -2.13 43.64 C-2.12 39.97 -2.13 36.31 -2.13 32.65 C-2.14 29.81 -2.14 26.96 -2.13 24.12 C-2.13 22.12 -2.14 20.12 -2.14 18.12 C-2.1 2.1 -2.1 2.1 0 0 Z " fill="#000100" transform="translate(1155,866)"/>
<path d="M0 0 C0.99 0 1.98 0 3 0 C3.02 7.8 3.04 15.6 3.05 23.39 C3.06 27.02 3.06 30.64 3.08 34.26 C3.09 37.76 3.09 41.26 3.09 44.76 C3.1 46.74 3.11 48.71 3.11 50.68 C3.11 57.21 2.89 63.53 2 70 C1.67 70 1.34 70 1 70 C-0.26 55.34 -0.11 40.7 -0.06 26 C-0.06 23.47 -0.05 20.94 -0.05 18.41 C-0.04 12.28 -0.02 6.14 0 0 Z " fill="#2B2D2C" transform="translate(1155,478)"/>
<path d="M0 0 C7.9 -0.28 15.25 0.48 23 2 C22.01 3.49 22.01 3.49 21 5 C21 4.34 21 3.68 21 3 C20.34 3 19.68 3 19 3 C18.86 3.64 18.71 4.28 18.56 4.94 C18 7 18 7 17 8 C12.7 8.46 9.01 8.42 5 6.75 C2.77 4.8 2.47 3.85 2 1 C1.34 0.67 0.68 0.34 0 0 Z " fill="#2F63BE" transform="translate(437,773)"/>
<path d="M0 0 C1.07 -0.01 1.07 -0.01 2.17 -0.02 C5.94 -0.01 7.66 0.11 10.88 2.25 C8.42 5.42 6.58 6.55 2.69 7.06 C1.43 7.12 0.17 7.19 -1.12 7.25 C-1.45 6.92 -1.79 6.59 -2.12 6.25 C-4.41 6.01 -6.7 5.87 -9 5.73 C-11.12 5.25 -11.12 5.25 -13.12 2.25 C-8.78 0.1 -4.75 -0.05 0 0 Z " fill="#2F63BE" transform="translate(488.125,572.75)"/>
<path d="M0 0 C0.77 0.09 1.55 0.18 2.34 0.27 C4.5 0.75 4.5 0.75 7.5 2.75 C7.69 5.88 7.69 5.88 7.5 8.75 C1.97 8.94 -2.26 8.5 -7.5 6.75 C-7.69 4.38 -7.69 4.38 -7.5 1.75 C-4.22 -0.44 -3.69 -0.47 0 0 Z " fill="#3068BF" transform="translate(398.5,939.25)"/>
<path d="M0 0 C19.22 -0.36 19.22 -0.36 26.87 1.56 C29.92 2.19 32.85 2.03 35.95 1.94 C38.86 2.03 41.32 2.9 44 4 C44 4.33 44 4.66 44 5 C33.99 5.14 24.11 4.73 14.12 4 C12.74 3.9 11.36 3.81 9.98 3.71 C6.65 3.48 3.33 3.24 0 3 C0 2.01 0 1.02 0 0 Z " fill="#868686" transform="translate(885,119)"/>
<path d="M0 0 C2.46 0.37 2.46 0.37 4.46 2.37 C4.13 2.7 3.8 3.03 3.46 3.37 C3.42 5.37 3.42 7.37 3.46 9.37 C1.36 9.09 -0.75 8.79 -2.85 8.5 C-4.02 8.33 -5.2 8.17 -6.4 8 C-9.54 7.37 -9.54 7.37 -12.54 5.37 C-9.47 -0.47 -5.99 -0.14 0 0 Z " fill="#3169C0" transform="translate(432.5390625,944.62890625)"/>
<path d="M0 0 C34.65 0 69.3 0 105 0 C105 0.33 105 0.66 105 1 C70.35 1 35.7 1 0 1 C0 0.67 0 0.34 0 0 Z " fill="#000100" transform="translate(804,1154)"/>
<path d="M0 0 C0.33 0 0.66 0 1 0 C1.67 20.34 2.18 40.65 2 61 C1.34 60.67 0.68 60.34 0 60 C-1.21 55.1 -1.15 50.2 -1.12 45.19 C-1.12 44.31 -1.12 43.44 -1.12 42.54 C-1.03 28.36 -0.48 14.17 0 0 Z " fill="#000100" transform="translate(1154,800)"/>
<path d="M0 0 C5.48 -0.05 10.96 -0.09 16.44 -0.11 C18.31 -0.12 20.17 -0.13 22.04 -0.15 C24.72 -0.18 27.4 -0.19 30.08 -0.2 C30.91 -0.21 31.74 -0.22 32.6 -0.23 C39.75 -0.23 39.75 -0.23 43 2 C40.25 2.78 37.82 3.12 34.97 3.11 C33.8 3.11 33.8 3.11 32.6 3.11 C31.77 3.11 30.94 3.1 30.08 3.1 C29.22 3.1 28.36 3.09 27.47 3.09 C24.73 3.09 21.99 3.08 19.25 3.06 C17.39 3.06 15.53 3.05 13.67 3.05 C9.11 3.04 4.56 3.02 0 3 C0 2.01 0 1.02 0 0 Z " fill="#868686" transform="translate(369,119)"/>
<path d="M0 0 C2 -0.01 3.99 -0.04 5.99 -0.07 C17.93 -0.12 17.93 -0.12 23.77 3.24 C23.77 3.57 23.77 3.9 23.77 4.24 C11.23 3.91 -1.31 3.58 -14.23 3.24 C-14.56 2.58 -14.89 1.92 -15.23 1.24 C-10.29 -0.41 -5.17 0.02 0 0 Z " fill="#525454" transform="translate(788.23193359375,117.759765625)"/>
<path d="M0 0 C1.32 0 2.64 0 4 0 C3.67 0.99 3.34 1.98 3 3 C2.34 3 1.68 3 1 3 C0.91 3.8 0.91 3.8 0.81 4.62 C-0.71 9.08 -4.44 12.95 -8 16 C-8.66 16 -9.32 16 -10 16 C-10 16.66 -10 17.32 -10 18 C-15.48 23 -15.48 23 -18 23 C-18 23.66 -18 24.32 -18 25 C-19.29 25.7 -20.58 26.38 -21.88 27.06 C-22.95 27.64 -22.95 27.64 -24.05 28.22 C-24.7 28.48 -25.34 28.74 -26 29 C-26.66 28.67 -27.32 28.34 -28 28 C-26.82 27.32 -26.82 27.32 -25.62 26.62 C-22.96 25.12 -22.96 25.12 -21 23 C-20.01 22.22 -19.02 21.43 -18 20.62 C-15.42 18.36 -14.16 17.13 -13 14 C-12.34 14 -11.68 14 -11 14 C-10.67 13.01 -10.34 12.02 -10 11 C-8.76 10.54 -8.76 10.54 -7.5 10.06 C-6.67 9.71 -5.85 9.36 -5 9 C-4.34 7.02 -4.34 7.02 -4 5 C-3.01 4.34 -2.02 3.68 -1 3 C-0.67 2.01 -0.34 1.02 0 0 Z " fill="#010201" transform="translate(1094,1080)"/>
<path d="M0 0 C0.66 0.33 1.32 0.66 2 1 C-0.63 3.75 -3.28 6.47 -5.94 9.19 C-6.67 9.96 -7.41 10.73 -8.17 11.52 C-13.02 16.45 -17.74 20.03 -24 23 C-23.69 20.63 -23.69 20.63 -23 18 C-21.04 16.61 -19.04 15.27 -17 14 C-16.67 13.01 -16.34 12.02 -16 11 C-14.1 10.07 -12.2 9.14 -10.28 8.25 C-6.36 6.1 -3.23 3.05 0 0 Z " fill="#515252" transform="translate(199,178)"/>
<path d="M0 0 C0.48 0.32 0.96 0.63 1.45 0.96 C5.16 2.47 8.78 2.47 12.75 2.62 C13.94 2.68 13.94 2.68 15.15 2.74 C17.1 2.84 19.05 2.92 21 3 C21 2.34 21 1.68 21 1 C21.72 1.14 22.44 1.29 23.19 1.44 C24.12 1.62 25.04 1.81 26 2 C27.67 2.33 29.33 2.67 31 3 C31.33 2.01 31.66 1.02 32 0 C34.38 -0.12 34.38 -0.12 37 0 C37.66 0.66 38.32 1.32 39 2 C40.99 2.4 42.99 2.74 45 3 C45 3.33 45 3.66 45 4 C22.89 4 0.78 4 -22 4 C-22 3.67 -22 3.34 -22 3 C-15.07 3 -8.14 3 -1 3 C-0.67 2.01 -0.34 1.02 0 0 Z " fill="#C0CAD5" transform="translate(765,131)"/>
<path d="M0 0 C0.33 0 0.66 0 1 0 C1.14 10.34 0.95 20.57 -0.56 30.81 C-0.89 33.57 -1.06 36.27 -1.06 39.04 C-1.06 39.77 -1.07 40.5 -1.07 41.26 C-1.06 44.5 -1.04 47.75 -1 51 C-1.66 51 -2.32 51 -3 51 C-3.36 33.67 -2.96 17.11 0 0 Z " fill="#999B9C" transform="translate(122,349)"/>
<path d="M0 0 C2.71 -0.05 5.42 -0.09 8.12 -0.12 C8.89 -0.14 9.65 -0.16 10.43 -0.18 C15.11 -0.22 18.55 0.45 23 2 C26.77 2.53 30.57 2.78 34.37 3.04 C39.71 3.51 42.78 4.66 47 8 C45.38 8.69 45.38 8.69 43 9 C42.18 8.53 41.35 8.06 40.5 7.58 C35.85 5.48 31.61 5.31 26.56 5 C17.5 4.32 8.85 3.07 0 1 C0 0.67 0 0.34 0 0 Z " fill="#585959" transform="translate(942,123)"/>
<path d="M0 0 C0.66 0 1.32 0 2 0 C2.32 2.42 2.63 4.83 2.94 7.25 C3.08 8.33 3.08 8.33 3.22 9.44 C3.9 14.83 4.33 20.21 4.56 25.64 C4.78 28.06 4.78 28.06 6.49 29.47 C8.69 31.7 8.51 33.62 8.69 36.69 C8.79 38.18 8.79 38.18 8.89 39.7 C8.92 40.46 8.96 41.22 9 42 C-0.59 32.41 0.39 12.63 0 0 Z " fill="#1B1D1D" transform="translate(127,953)"/>
<path d="M0 0 C7.61 1.39 12.95 8.88 18 14.31 C18.49 14.84 18.99 15.37 19.49 15.91 C23 19.76 23 19.76 23 22 C19.09 20.38 16.24 17.72 13.19 14.88 C12.66 14.39 12.13 13.9 11.59 13.4 C7.45 9.52 3.43 5.52 0 1 C0 0.67 0 0.34 0 0 Z " fill="#C0CAD5" transform="translate(185,1076)"/>
<path d="M0 0 C-3.05 1.6 -5.97 2.99 -9.25 4.06 C-12.1 4.81 -12.1 4.81 -14 7 C-17 7.83 -20.01 8.47 -23.05 9.12 C-26.01 10 -27.61 11.11 -30 13 C-32.75 13.19 -32.75 13.19 -35 13 C-31.54 10.01 -28.39 8.14 -24.12 6.5 C-20.64 5.12 -17.41 3.76 -14.25 1.75 C-9.55 -0.78 -5.21 -1.74 0 0 Z " fill="#565858" transform="translate(276,135)"/>
<path d="M0 0 C-0.33 0.66 -0.66 1.32 -1 2 C-4.28 2.87 -7.56 3.2 -10.94 3.46 C-12.31 3.58 -12.31 3.58 -13.71 3.7 C-15.61 3.86 -17.52 4.01 -19.43 4.16 C-20.34 4.24 -21.25 4.32 -22.19 4.4 C-23.43 4.5 -23.43 4.5 -24.7 4.61 C-27.14 5.02 -28.81 5.88 -31 7 C-33.01 7.41 -33.01 7.41 -35.11 7.63 C-35.86 7.72 -36.62 7.8 -37.39 7.89 C-38.17 7.97 -38.95 8.04 -39.75 8.12 C-40.54 8.21 -41.34 8.3 -42.15 8.39 C-44.1 8.6 -46.05 8.8 -48 9 C-44.43 5.43 -39.55 4.99 -34.69 4.56 C-31.25 4.25 -28.27 3.52 -25 2.44 C-20.86 1.1 -17.43 0.85 -13.1 1.03 C-8.29 0.96 -4.73 -1.89 0 0 Z " fill="#414343" transform="translate(324,125)"/>
<path d="M0 0 C2.87 1.38 5.55 2.95 8 5 C8 5.66 8 6.32 8 7 C2 7.22 -3.19 6.51 -9 5 C-8.62 3.06 -8.62 3.06 -8 1 C-5.07 -0.47 -3.28 -0.36 0 0 Z " fill="#3068BF" transform="translate(593,976)"/>
<path d="M0 0 C4.12 -0.09 8.25 -0.14 12.38 -0.19 C13.55 -0.21 14.73 -0.24 15.94 -0.26 C17.62 -0.28 17.62 -0.28 19.34 -0.29 C20.37 -0.31 21.41 -0.32 22.48 -0.34 C23.31 -0.23 24.14 -0.12 25 0 C25.66 0.99 26.32 1.98 27 3 C17.76 3 8.52 3 -1 3 C-0.67 2.01 -0.34 1.02 0 0 Z " fill="#C0CAD5" transform="translate(621,131)"/>
<path d="M0 0 C0.99 0 1.98 0 3 0 C1.63 2.95 0.17 5.57 -2 8 C-2.99 8 -3.98 8 -5 8 C-5.11 8.57 -5.22 9.13 -5.33 9.71 C-5.49 10.45 -5.65 11.18 -5.81 11.94 C-5.96 12.67 -6.11 13.4 -6.27 14.15 C-6.51 14.76 -6.75 15.37 -7 16 C-7.99 16.33 -8.98 16.66 -10 17 C-11.41 18.95 -12.73 20.96 -14 23 C-14.75 24.13 -15.5 25.25 -16.25 26.38 C-16.83 27.24 -17.41 28.11 -18 29 C-18.63 27.21 -18.63 27.21 -19 25 C-17.44 22.45 -15.89 20.21 -14.06 17.88 C-13.56 17.21 -13.06 16.55 -12.54 15.87 C-11.52 14.54 -10.49 13.21 -9.46 11.88 C-8.15 10.2 -6.87 8.5 -5.59 6.79 C-1.68 1.68 -1.68 1.68 0 0 Z " fill="#595B5B" transform="translate(174,202)"/>
<path d="M0 0 C3.96 -0.09 7.92 -0.14 11.88 -0.19 C13 -0.21 14.13 -0.24 15.29 -0.26 C16.37 -0.27 17.45 -0.28 18.55 -0.29 C20.05 -0.32 20.05 -0.32 21.57 -0.34 C22.37 -0.23 23.17 -0.12 24 0 C24.66 0.99 25.32 1.98 26 3 C17.42 3 8.84 3 0 3 C0 2.01 0 1.02 0 0 Z " fill="#868686" transform="translate(749,119)"/>
<path d="M0 0 C0.66 0.33 1.32 0.66 2 1 C1.34 2.65 0.68 4.3 0 6 C-0.66 6 -1.32 6 -2 6 C-2.99 7.48 -2.99 7.48 -4 9 C-4.66 9 -5.32 9 -6 9 C-6.04 9.58 -6.08 10.15 -6.12 10.75 C-7.44 14.13 -9.98 15.15 -13 17 C-13.66 17.66 -14.32 18.32 -15 19 C-15.33 18.01 -15.66 17.02 -16 16 C-14.86 14.21 -14.86 14.21 -13.19 12.38 C-12.64 11.76 -12.1 11.15 -11.54 10.52 C-10 9 -10 9 -8 8 C-7.34 7.01 -6.68 6.02 -6 5 C-5.01 5 -4.02 5 -3 5 C-2.88 4.36 -2.75 3.72 -2.62 3.06 C-2.42 2.38 -2.21 1.7 -2 1 C-1.34 0.67 -0.68 0.34 0 0 Z " fill="#A2AAB3" transform="translate(1095,1072)"/>
<path d="M0 0 C2.06 1.25 2.06 1.25 3 3 C2.69 5.19 2.69 5.19 2 7 C-6 7.31 -6 7.31 -9 5 C-9.75 2.88 -9.75 2.88 -10 1 C-6.82 -0.59 -3.46 -0.4 0 0 Z " fill="#2F63BE" transform="translate(548,569)"/>
<path d="M0 0 C1.4 4.21 -0.14 6.07 -2 10 C-2.36 10.6 -2.71 11.2 -3.08 11.82 C-4.3 14.71 -4.32 17.25 -4.44 20.38 C-4.74 25.4 -5.24 28.8 -8 33 C-9 30 -9 30 -8 27 C-8.01 25.65 -8.05 24.29 -8.12 22.94 C-8.2 14.17 -4.99 7.05 0 0 Z " fill="#565757" transform="translate(137,265)"/>
<path d="M0 0 C5.6 4.55 10.31 9.52 15 15 C14.01 15.5 14.01 15.5 13 16 C7.75 12.85 2.61 9 -1 4 C-0.72 1.75 -0.72 1.75 0 0 Z " fill="#C0CAD5" transform="translate(1078,187)"/>
<path d="M0 0 C1.48 0.99 1.48 0.99 3 2 C3.12 2.95 3.25 3.9 3.38 4.88 C3.68 8.13 3.68 8.13 6.19 9.75 C10.25 13 12.89 17.25 15 22 C14.67 22.99 14.34 23.98 14 25 C13.67 24.34 13.34 23.68 13 23 C12.36 22.73 11.72 22.46 11.06 22.19 C8.28 20.59 7.95 19 7 16 C6.31 12.92 6.31 12.92 4.02 11.64 C1.41 9.52 1.26 8.08 0.75 4.81 C0.6 3.91 0.45 3.01 0.3 2.08 C0.2 1.39 0.1 0.71 0 0 Z " fill="#454747" transform="translate(1118,222)"/>
<path d="M0 0 C0.33 0 0.66 0 1 0 C2.18 5.38 2.42 10.7 2.69 16.19 C2.75 17.2 2.81 18.21 2.87 19.25 C2.94 20.69 2.94 20.69 3.01 22.17 C3.06 23.05 3.1 23.93 3.15 24.83 C3 27 3 27 1 29 C0 28 0 28 -0.11 25.32 C-0.11 24.15 -0.1 22.98 -0.1 21.78 C-0.09 20.52 -0.09 19.26 -0.09 17.96 C-0.08 16.62 -0.07 15.28 -0.06 13.94 C-0.06 12.59 -0.05 11.25 -0.05 9.9 C-0.04 6.6 -0.02 3.3 0 0 Z " fill="#C2CBD6" transform="translate(125,922)"/>
<path d="M0 0 C3 2 3 2 3.51 4.03 C3.57 4.85 3.63 5.66 3.69 6.5 C3.75 7.38 3.82 8.27 3.88 9.18 C4.06 13.46 4.08 17.72 4 22 C3.34 21.67 2.68 21.34 2 21 C1.33 18.38 1.33 18.38 0.81 15.12 C0.63 14.06 0.45 12.99 0.27 11.88 C0 9 0 9 1 6 C0.35 4.66 -0.32 3.32 -1 2 C-0.67 1.34 -0.34 0.68 0 0 Z " fill="#3D3F3F" transform="translate(124,949)"/>
<path d="M0 0 C0.66 0 1.32 0 2 0 C2 7.59 2 15.18 2 23 C1.01 22.67 0.02 22.34 -1 22 C-0.67 14.74 -0.34 7.48 0 0 Z " fill="#7E8081" transform="translate(127,298)"/>
<path d="M0 0 C0.33 0 0.66 0 1 0 C2.63 23.69 2.63 23.69 1 30 C0.67 30 0.34 30 0 30 C-1.12 20 -1.87 9.94 0 0 Z " fill="#1C1D1D" transform="translate(1156,761)"/>
<path d="M0 0 C0.33 0 0.66 0 1 0 C1.44 10.46 0.22 19.82 -2 30 C-2.33 30 -2.66 30 -3 30 C-2.54 19.87 -1.79 10 0 0 Z " fill="#535555" transform="translate(122,349)"/>
<path d="M0 0 C0 7.59 0 15.18 0 23 C-0.66 23.33 -1.32 23.66 -2 24 C-3.25 16.35 -3.09 8.73 -3 1 C-1 0 -1 0 0 0 Z " fill="#000100" transform="translate(1156,668)"/>
<path d="M0 0 C2.38 -0.12 2.38 -0.12 5 0 C5.66 0.66 6.32 1.32 7 2 C9.23 2.37 9.23 2.37 11.79 2.41 C13.2 2.47 13.2 2.47 14.64 2.53 C15.63 2.56 16.61 2.59 17.62 2.62 C19.11 2.68 19.11 2.68 20.63 2.74 C23.09 2.84 25.54 2.92 28 3 C28 3.33 28 3.66 28 4 C24.48 4.03 20.96 4.05 17.44 4.06 C16.45 4.07 15.46 4.08 14.44 4.09 C9.17 4.11 4.18 3.92 -1 3 C-0.67 2.01 -0.34 1.02 0 0 Z " fill="#C0CAD5" transform="translate(427,131)"/>
<path d="M0 0 C1 3 1 3 -0.11 5.23 C-0.65 6.06 -1.19 6.89 -1.75 7.75 C-3.64 10.74 -5.37 13.59 -6.69 16.88 C-7.86 19.67 -9.07 21.7 -11 24 C-9.86 15.16 -4.63 7.4 0 0 Z " fill="#444646" transform="translate(154,231)"/>
<path d="M0 0 C0.66 0.33 1.32 0.66 2 1 C1.53 1.6 1.05 2.2 0.56 2.81 C-1.16 5 -1.16 5 -2 8 C-3.97 9.37 -5.98 10.7 -8 12 C-9.79 13.62 -9.79 13.62 -11 15 C-11.66 14.67 -12.32 14.34 -13 14 C-10.62 9.24 -10.62 9.24 -7.56 8.06 C-4 6.59 -2.93 4.24 -1 1 C-0.67 0.67 -0.34 0.34 0 0 Z " fill="#4B4D4D" transform="translate(214,163)"/>
<path d="M0 0 C1.27 0.01 2.54 0.02 3.86 0.03 C5.32 0.04 5.32 0.04 6.81 0.06 C6.48 1.38 6.15 2.7 5.81 4.06 C3.52 3.95 1.23 3.82 -1.06 3.69 C-2.34 3.62 -3.61 3.55 -4.93 3.48 C-8.19 3.06 -8.19 3.06 -10.19 1.06 C-6.63 -0.12 -3.75 -0.03 0 0 Z " fill="#474949" transform="translate(742.1875,117.9375)"/>
<path d="M0 0 C0.66 0.66 1.32 1.32 2 2 C-4.26 4.58 -10.55 6.94 -17 9 C-17 8.01 -17 7.02 -17 6 C-5.48 1.78 -5.48 1.78 0 0 Z " fill="#000100" transform="translate(1022,1134)"/>
<path d="M0 0 C0.33 0 0.66 0 1 0 C1.1 0.76 1.21 1.53 1.31 2.31 C1.73 5.02 1.73 5.02 3.5 6.31 C5.61 8.68 5.5 10.56 5.69 13.69 C5.75 14.68 5.82 15.68 5.89 16.7 C5.92 17.46 5.96 18.22 6 19 C3.92 16.92 3.39 15.72 2.44 13 C1.7 10.92 0.99 8.97 0 7 C-0.04 4.67 -0.04 2.33 0 0 Z " fill="#0A0C0B" transform="translate(130,976)"/>
<path d="M0 0 C2.57 3.84 2.23 7.81 2.12 12.25 C2.12 13 2.11 13.74 2.1 14.51 C2.07 16.34 2.04 18.17 2 20 C1.67 20 1.34 20 1 20 C0.67 18.35 0.34 16.7 0 15 C-0.33 15 -0.66 15 -1 15 C-0.67 11.37 -0.34 7.74 0 4 C-0.66 4 -1.32 4 -2 4 C-2 3.34 -2 2.68 -2 2 C-1.34 2 -0.68 2 0 2 C0 1.34 0 0.68 0 0 Z " fill="#303131" transform="translate(1155,329)"/>
<path d="M0 0 C0 0.99 0 1.98 0 3 C-6.77 3.11 -13.29 2.88 -20 2 C-20 1.67 -20 1.34 -20 1 C-13.3 0.2 -6.74 -0.13 0 0 Z " fill="#434545" transform="translate(369,118)"/>
<path d="M0 0 C0 0.66 0 1.32 0 2 C-1.98 2 -3.96 2 -6 2 C-6 2.66 -6 3.32 -6 4 C-7.98 4.33 -9.96 4.66 -12 5 C-12 4.34 -12 3.68 -12 3 C-12.99 3 -13.98 3 -15 3 C-15 2.34 -15 1.68 -15 1 C-9.93 0.29 -5.12 -0.11 0 0 Z " fill="#2F64BE" transform="translate(429,578)"/>
<path d="M0 0 C0.87 0.03 1.73 0.05 2.62 0.08 C6.89 0.34 11.13 0.74 15.38 1.25 C15.38 1.58 15.38 1.91 15.38 2.25 C7.45 2.58 -0.46 2.91 -8.62 3.25 C-4.11 -0.13 -4.11 -0.13 0 0 Z " fill="#868686" transform="translate(352.625,119.75)"/>
<path d="M0 0 C2.66 2.53 4.91 5.31 7.19 8.19 C7.9 9.09 8.62 9.99 9.36 10.92 C10.17 11.95 10.17 11.95 11 13 C10.67 13.66 10.34 14.32 10 15 C8.68 14.34 7.36 13.68 6 13 C6 12.34 6 11.68 6 11 C5.34 11 4.68 11 4 11 C0.73 7.73 0.43 4.49 0 0 Z " fill="#4B4D4D" transform="translate(1106,206)"/>
<path d="M0 0 C0.99 0.33 1.98 0.66 3 1 C4.44 1.02 5.88 0.99 7.31 0.94 C11.25 0.88 14.32 1.49 18 3 C18 3.33 18 3.66 18 4 C10.58 4.09 3.34 4.17 -4 3 C-2.19 1.44 -2.19 1.44 0 0 Z " fill="#C7D0DA" transform="translate(911,120)"/>
<path d="M0 0 C0.66 0 1.32 0 2 0 C3.34 4.84 4.25 8.93 4 14 C3.01 14.5 3.01 14.5 2 15 C2 13.02 2 11.04 2 9 C1.34 9 0.68 9 0 9 C0 6.03 0 3.06 0 0 Z " fill="#787B7C" transform="translate(119,921)"/>
<path d="M0 0 C2.31 0 4.62 0 7 0 C7 0.66 7 1.32 7 2 C7.66 2 8.32 2 9 2 C8.67 2.66 8.34 3.32 8 4 C2.06 4 -3.88 4 -10 4 C-10 3.67 -10 3.34 -10 3 C-7.03 3 -4.06 3 -1 3 C-0.67 2.01 -0.34 1.02 0 0 Z " fill="#C0CAD5" transform="translate(895,131)"/>
<path d="M0 0 C-0.33 0.66 -0.66 1.32 -1 2 C-5.17 3.19 -9.5 3.31 -13.81 3.56 C-14.51 3.61 -15.2 3.65 -15.91 3.69 C-17.61 3.8 -19.3 3.9 -21 4 C-20.67 3.01 -20.34 2.02 -20 1 C-19.15 1.03 -19.15 1.03 -18.28 1.07 C-12.29 1.21 -5.42 -2.17 0 0 Z " fill="#4A4C4C" transform="translate(324,125)"/>
<path d="M0 0 C2.36 3.54 2.59 5.99 3.12 10.19 C3.29 11.46 3.46 12.73 3.63 14.04 C3.75 15.02 3.88 15.99 4 17 C2.68 17 1.36 17 0 17 C0.01 16.18 0.02 15.36 0.04 14.52 C0.05 12.9 0.05 12.9 0.06 11.25 C0.07 10.18 0.09 9.12 0.1 8.02 C0.01 5.46 -0.36 3.45 -1 1 C-0.67 0.67 -0.34 0.34 0 0 Z " fill="#101111" transform="translate(1150,310)"/>
<path d="M0 0 C1.89 0.15 1.89 0.15 3.83 0.31 C4.79 0.39 5.76 0.48 6.75 0.56 C6.42 1.22 6.09 1.88 5.75 2.56 C3.48 2.62 1.21 2.66 -1.06 2.69 C-2.96 2.72 -2.96 2.72 -4.89 2.76 C-8.25 2.56 -8.25 2.56 -11.25 0.56 C-7.43 -0.74 -3.97 -0.33 0 0 Z " fill="#393B3B" transform="translate(419.25,118.4375)"/>
<path d="M0 0 C0.33 0 0.66 0 1 0 C1.12 0.89 1.24 1.78 1.37 2.7 C1.53 3.87 1.7 5.04 1.88 6.25 C2.04 7.41 2.2 8.57 2.37 9.77 C2.83 12.92 2.83 12.92 4.13 15.23 C5 17 5 17 4 20 C1 15.38 1 15.38 1 12 C0.34 12 -0.32 12 -1 12 C-0.67 8.04 -0.34 4.08 0 0 Z " fill="#2C2E2E" transform="translate(1145,278)"/>
<path d="M0 0 C0.33 0 0.66 0 1 0 C1 4.95 1 9.9 1 15 C0.01 15.5 0.01 15.5 -1 16 C-1.33 12.37 -1.66 8.74 -2 5 C-1.34 5 -0.68 5 0 5 C0 3.35 0 1.7 0 0 Z " fill="#000100" transform="translate(1155,601)"/>
<path d="M0 0 C1.41 4.23 -0.08 6.08 -2 10 C-3.69 12.44 -3.69 12.44 -5 14 C-5.75 8.02 -3.32 4.68 0 0 Z " fill="#808181" transform="translate(137,265)"/>
<path d="M0 0 C2.48 0.99 2.48 0.99 5 2 C2.32 4.68 0.61 4.39 -3.12 4.62 C-4.22 4.7 -5.32 4.77 -6.45 4.85 C-7.29 4.9 -8.13 4.95 -9 5 C-8.34 4.67 -7.68 4.34 -7 4 C-6.67 3.01 -6.34 2.02 -6 1 C-3.69 1.33 -1.38 1.66 1 2 C0.67 1.34 0.34 0.68 0 0 Z " fill="#2F63BE" transform="translate(487,525)"/>
<path d="M0 0 C-2.42 2.42 -3.8 2.53 -7.12 3.12 C-8.04 3.29 -8.95 3.46 -9.88 3.63 C-10.58 3.75 -11.28 3.88 -12 4 C-12 3.01 -12 2.02 -12 1 C-7.54 -0.81 -4.69 -1.12 0 0 Z " fill="#6D6E6E" transform="translate(942,122)"/>
<path d="M0 0 C2.97 0 5.94 0 9 0 C8.67 1.32 8.34 2.64 8 4 C6.02 4 4.04 4 2 4 C2 3.34 2 2.68 2 2 C1.34 2 0.68 2 0 2 C0 1.34 0 0.68 0 0 Z " fill="#2F63BE" transform="translate(542,304)"/>
<path d="M0 0 C0 0.99 0 1.98 0 3 C-6.75 4.12 -6.75 4.12 -9 3 C-9 2.34 -9 1.68 -9 1 C-6.04 -0.48 -3.26 -0.06 0 0 Z " fill="#2F64BE" transform="translate(579,299)"/>
<path d="M0 0 C0.66 0 1.32 0 2 0 C3 3 3 3 2.07 5.23 C1.62 6.02 1.16 6.81 0.69 7.62 C0.01 8.82 0.01 8.82 -0.68 10.04 C-2 12 -2 12 -4 13 C-2.77 8.62 -1.47 4.3 0 0 Z " fill="#C7D0DA" transform="translate(156,229)"/>
<path d="M0 0 C2.97 0 5.94 0 9 0 C8.34 1.32 7.68 2.64 7 4 C2.25 3.12 2.25 3.12 0 2 C0 1.34 0 0.68 0 0 Z " fill="#2F63BE" transform="translate(514,309)"/>
<path d="M0 0 C0.66 0 1.32 0 2 0 C0.44 4.67 -2.08 8.09 -5 12 C-5.68 10.27 -5.68 10.27 -6 8 C-4.86 5.86 -4.86 5.86 -3.19 3.75 C-2.37 2.69 -2.37 2.69 -1.54 1.61 C-1.03 1.08 -0.52 0.55 0 0 Z " fill="#505252" transform="translate(161,219)"/>
<path d="M0 0 C0 0.99 0 1.98 0 3 C-3.09 4.76 -4.23 5 -8 5 C-8 4.01 -8 3.02 -8 2 C-4.77 -0.15 -3.72 -0.2 0 0 Z " fill="#717577" transform="translate(243,148)"/>
<path d="M0 0 C6.52 -0.35 11.18 -0.04 17 3 C13.82 4.59 10.72 3.29 7.38 2.56 C6.67 2.41 5.96 2.27 5.23 2.12 C3.49 1.75 1.74 1.38 0 1 C0 0.67 0 0.34 0 0 Z " fill="#767676" transform="translate(942,123)"/>
<path d="M0 0 C0 3.63 0 7.26 0 11 C-3 8 -3 8 -3.19 4.31 C-3.13 3.22 -3.06 2.13 -3 1 C-1 0 -1 0 0 0 Z " fill="#000100" transform="translate(1156,583)"/>
<path d="M0 0 C0.66 0.33 1.32 0.66 2 1 C2 4.96 2 8.92 2 13 C1.34 12.67 0.68 12.34 0 12 C-0.91 7.7 -1.16 4.25 0 0 Z " fill="#000100" transform="translate(1154,547)"/>
<path d="M0 0 C3.85 1.25 6.03 2.39 8 6 C7.67 6.99 7.34 7.98 7 9 C6.67 8.34 6.34 7.68 6 7 C5.36 6.73 4.72 6.46 4.06 6.19 C1.32 4.61 0.93 2.95 0 0 Z " fill="#525454" transform="translate(1125,238)"/>
<path d="M0 0 C0.66 0.33 1.32 0.66 2 1 C-0.97 3.97 -3.94 6.94 -7 10 C-7.66 9.67 -8.32 9.34 -9 9 C-8.07 7.87 -7.13 6.75 -6.19 5.62 C-5.67 5 -5.14 4.37 -4.61 3.73 C-3 2 -3 2 0 0 Z " fill="#3D3F3F" transform="translate(199,178)"/>
<path d="M0 0 C-8.26 5.74 -8.26 5.74 -13 5 C-5.2 -1.5 -5.2 -1.5 0 0 Z " fill="#4A4B4B" transform="translate(254,143)"/>
<path d="M0 0 C0.33 0 0.66 0 1 0 C1.12 7.75 1.12 7.75 0 10 C-0.66 10 -1.32 10 -2 10 C-1.34 6.7 -0.68 3.4 0 0 Z " fill="#161716" transform="translate(1140,1008)"/>
<path d="M0 0 C0.33 0 0.66 0 1 0 C1 5.94 1 11.88 1 18 C0.67 18 0.34 18 0 18 C0 12.06 0 6.12 0 0 Z " fill="#000100" transform="translate(1156,459)"/>
<path d="M0 0 C0.66 0.33 1.32 0.66 2 1 C-0.31 2.32 -2.62 3.64 -5 5 C-5 4.01 -5 3.02 -5 2 C-2.62 0.94 -2.62 0.94 0 0 Z " fill="#000100" transform="translate(1060,1113)"/>
<path d="M0 0 C0.33 0.99 0.66 1.98 1 3 C-0.44 5.69 -0.44 5.69 -2 8 C-2.33 7.34 -2.66 6.68 -3 6 C-2.07 3.97 -1.07 1.96 0 0 Z " fill="#020303" transform="translate(1137,1018)"/>
<path d="M0 0 C3.63 0 7.26 0 11 0 C11 0.33 11 0.66 11 1 C7.37 1 3.74 1 0 1 C0 0.67 0 0.34 0 0 Z " fill="#000100" transform="translate(919,1155)"/>
<path d="M0 0 C3.63 0 7.26 0 11 0 C11 0.33 11 0.66 11 1 C7.37 1 3.74 1 0 1 C0 0.67 0 0.34 0 0 Z " fill="#000100" transform="translate(991,1144)"/>
<path d="M0 0 C0.33 0 0.66 0 1 0 C1 2.97 1 5.94 1 9 C0.67 9 0.34 9 0 9 C0 6.03 0 3.06 0 0 Z " fill="#474949" transform="translate(1157,385)"/>
<path d="M0 0 C2.64 0 5.28 0 8 0 C8 0.33 8 0.66 8 1 C5.36 1 2.72 1 0 1 C0 0.67 0 0.34 0 0 Z " fill="#000100" transform="translate(953,1150)"/>
<path d="M0 0 C2.31 0 4.62 0 7 0 C7 0.33 7 0.66 7 1 C4.69 1 2.38 1 0 1 C0 0.67 0 0.34 0 0 Z " fill="#000100" transform="translate(961,1149)"/>
<path d="M0 0 C0.66 0.33 1.32 0.66 2 1 C0.02 1.99 0.02 1.99 -2 3 C-1.34 2.01 -0.68 1.02 0 0 Z " fill="#000100" transform="translate(1030,1130)"/>
<path d="M0 0 C0 0.99 0 1.98 0 3 C-0.99 3.49 -0.99 3.49 -2 4 C-1.34 2.68 -0.68 1.36 0 0 Z " fill="#000100" transform="translate(1133,1026)"/>
<path d="M0 0 C1.65 0 3.3 0 5 0 C5 0.33 5 0.66 5 1 C3.35 1 1.7 1 0 1 C0 0.67 0 0.34 0 0 Z " fill="#000100" transform="translate(972,1148)"/>
<path d="M0 0 C0.33 0 0.66 0 1 0 C1 1.65 1 3.3 1 5 C0.67 5 0.34 5 0 5 C0 3.35 0 1.7 0 0 Z " fill="#000100" transform="translate(1145,990)"/>
<path d="M0 0 C0.66 0 1.32 0 2 0 C1.67 0.99 1.34 1.98 1 3 C0.67 2.01 0.34 1.02 0 0 Z " fill="#1B1D1D" transform="translate(1151,953)"/>
<path d="M0 0 C4 1 4 1 4 1 Z " fill="#222424" transform="translate(285,128)"/>
<path d="M0 0 C3 1 3 1 3 1 Z " fill="#000100" transform="translate(911,1154)"/>
<path d="M0 0 C3 1 3 1 3 1 Z " fill="#000100" transform="translate(950,1151)"/>
<path d="M0 0 C3 1 3 1 3 1 Z " fill="#000100" transform="translate(985,1145)"/>
<path d="M0 0 C0.66 0 1.32 0 2 0 C1.67 0.66 1.34 1.32 1 2 C0.67 1.34 0.34 0.68 0 0 Z " fill="#474949" transform="translate(1103,203)"/>
<path d="M0 0 C2 1 2 1 2 1 Z " fill="#000100" transform="translate(946,1152)"/>
<path d="M0 0 C2 1 2 1 2 1 Z " fill="#000100" transform="translate(1034,1128)"/>
<path d="M0 0 C2 1 2 1 2 1 Z " fill="#000100" transform="translate(1036,1127)"/>
<path d="M0 0 C2 1 2 1 2 1 Z " fill="#000100" transform="translate(1048,1120)"/>
<path d="M0 0 C2 1 2 1 2 1 Z " fill="#000100" transform="translate(1051,1119)"/>
<path d="" fill="#000100" transform="translate(0,0)"/>
<path d="" fill="#232524" transform="translate(0,0)"/>
<path d="" fill="#232524" transform="translate(0,0)"/>
<path d="" fill="#222424" transform="translate(0,0)"/>
<path d="" fill="#000100" transform="translate(0,0)"/>
<path d="" fill="#000100" transform="translate(0,0)"/>
<path d="" fill="#000100" transform="translate(0,0)"/>
<path d="" fill="#000100" transform="translate(0,0)"/>
<path d="" fill="#000100" transform="translate(0,0)"/>
<path d="" fill="#000100" transform="translate(0,0)"/>
<path d="" fill="#000100" transform="translate(0,0)"/>
<path d="" fill="#000100" transform="translate(0,0)"/>
<path d="" fill="#000100" transform="translate(0,0)"/>
<path d="" fill="#000100" transform="translate(0,0)"/>
<path d="" fill="#000100" transform="translate(0,0)"/>
<path d="" fill="#000100" transform="translate(0,0)"/>
<path d="" fill="#000100" transform="translate(0,0)"/>
<path d="" fill="#000100" transform="translate(0,0)"/>
<path d="" fill="#000100" transform="translate(0,0)"/>
<path d="" fill="#000100" transform="translate(0,0)"/>
<path d="" fill="#000100" transform="translate(0,0)"/>
<path d="" fill="#474949" transform="translate(0,0)"/>
<path d="" fill="#000100" transform="translate(0,0)"/>
<path d="" fill="#000100" transform="translate(0,0)"/>
<path d="" fill="#222424" transform="translate(0,0)"/>
<path d="" fill="#000100" transform="translate(0,0)"/>
<path d="" fill="#000100" transform="translate(0,0)"/>
<path d="" fill="#000100" transform="translate(0,0)"/>
<path d="" fill="#000100" transform="translate(0,0)"/>
<path d="" fill="#000100" transform="translate(0,0)"/>
<path d="" fill="#000100" transform="translate(0,0)"/>
<path d="" fill="#222424" transform="translate(0,0)"/>
<path d="" fill="#000100" transform="translate(0,0)"/>
<path d="" fill="#222424" transform="translate(0,0)"/>
<path d="" fill="#000100" transform="translate(0,0)"/>
<path d="" fill="#474949" transform="translate(0,0)"/>
<path d="" fill="#474949" transform="translate(0,0)"/>
<path d="" fill="#868686" transform="translate(0,0)"/>
<path d="" fill="#000100" transform="translate(0,0)"/>
<path d="" fill="#222424" transform="translate(0,0)"/>
<path d="" fill="#222424" transform="translate(0,0)"/>
<path d="" fill="#222424" transform="translate(0,0)"/>
<path d="" fill="#474949" transform="translate(0,0)"/>
<path d="" fill="#474949" transform="translate(0,0)"/>
<path d="" fill="#474949" transform="translate(0,0)"/>
<path d="" fill="#222424" transform="translate(0,0)"/>
<path d="" fill="#474949" transform="translate(0,0)"/>
<path d="" fill="#474949" transform="translate(0,0)"/>
<path d="" fill="#222424" transform="translate(0,0)"/>
<path d="" fill="#474949" transform="translate(0,0)"/>
<path d="" fill="#222424" transform="translate(0,0)"/>
<path d="" fill="#222424" transform="translate(0,0)"/>
<path d="" fill="#222424" transform="translate(0,0)"/>
<path d="" fill="#868686" transform="translate(0,0)"/>
<path d="" fill="#222424" transform="translate(0,0)"/>
<path d="" fill="#474949" transform="translate(0,0)"/>
<path d="" fill="#474949" transform="translate(0,0)"/>
<path d="" fill="#222424" transform="translate(0,0)"/>
<path d="" fill="#222424" transform="translate(0,0)"/>
<path d="" fill="#474949" transform="translate(0,0)"/>
</svg>
